<svg xmlns="http://www.w3.org/2000/svg" xmlns:xlink="http://www.w3.org/1999/xlink" id="web-manage-banner" width="551.123" height="460.124" viewBox="0 0 551.123 460.124"><defs><linearGradient id="linear-gradient" x1="0.731" y1="0.904" x2="0.245" y2="0.089" gradientUnits="objectBoundingBox"><stop offset="0" stop-color="#00adee"></stop><stop offset="1" stop-color="#142a6d"></stop></linearGradient><linearGradient id="linear-gradient-2" x1="0.673" y1="1.043" x2="0.311" y2="-0.038" xlink:href="#linear-gradient"></linearGradient><linearGradient id="linear-gradient-3" x1="0.78" y1="1.028" x2="0.23" y2="0.004" xlink:href="#linear-gradient"></linearGradient><linearGradient id="linear-gradient-4" x1="0.89" y1="0.984" x2="0.125" y2="0.011" xlink:href="#linear-gradient"></linearGradient><linearGradient id="linear-gradient-5" x1="0.571" y1="0.838" x2="0.412" y2="0.183" xlink:href="#linear-gradient"></linearGradient><linearGradient id="linear-gradient-6" x1="49.15" y1="-2.261" x2="49.15" y2="-1.888" gradientUnits="objectBoundingBox"><stop offset="0" stop-color="#f6f6f6"></stop><stop offset="1" stop-color="#c9d6ff"></stop></linearGradient><linearGradient id="linear-gradient-7" x1="0.5" y1="0.51" x2="0.306" y2="-0.222" gradientUnits="objectBoundingBox"><stop offset="0" stop-color="#fad6c7"></stop><stop offset="1" stop-color="#e4857f"></stop></linearGradient><linearGradient id="linear-gradient-8" x1="0.496" y1="0.442" x2="0.318" y2="-0.41" xlink:href="#linear-gradient-7"></linearGradient><linearGradient id="linear-gradient-9" x1="442.399" y1="-34.145" x2="440.432" y2="-35.405" xlink:href="#linear-gradient-7"></linearGradient><linearGradient id="linear-gradient-10" x1="0.516" y1="0.881" x2="0.446" y2="0.096" xlink:href="#linear-gradient-6"></linearGradient><linearGradient id="linear-gradient-11" x1="0.36" y1="-2.055" x2="-0.204" y2="-2.605" xlink:href="#linear-gradient-7"></linearGradient><linearGradient id="linear-gradient-12" x1="0.725" y1="3.135" x2="0.508" y2="0.327" xlink:href="#linear-gradient-6"></linearGradient><linearGradient id="linear-gradient-13" x1="0.146" y1="16.604" x2="0.262" y2="19.283" xlink:href="#linear-gradient-7"></linearGradient></defs><g id="monitor" transform="translate(-1091.225 -541.645)"><path id="Path_19534" data-name="Path 19534" d="M2400.52,1359.522l-1.385.694.485-1.287Z" transform="translate(-878.026 -548.658)" fill="#d3d4ff"></path><path id="Path_19537" data-name="Path 19537" d="M1834.936,943.089l-1.441.72,2.11,2.577Z" transform="translate(-498.3 -269.497)" fill="#d3d4ff"></path><path id="Path_19529" data-name="Path 19529" d="M2066.969,1078.018l11.162,61.063-14.361,8.291a10.88,10.88,0,0,1-10.872.005l-28.718-16.54a2.5,2.5,0,0,1,0-4.327l16.162-9.36-11.183-60.974Z" transform="translate(-625.471 -345.415)" fill="#c0c2f7"></path><path id="Path_19530" data-name="Path 19530" d="M1846.589,588.149a5.515,5.515,0,0,0-.378,2.015V720.876a21.511,21.511,0,0,0,10.768,18.639l169.93,98.082a5.433,5.433,0,0,0,2.821.756l.2.844,2.556-1.587c.013-.013.025-.013.038-.025l.315-.189-.012-.013a5.512,5.512,0,0,0,2.469-4.622V702.073a21.511,21.511,0,0,0-10.768-18.639L1854.6,585.328a5.424,5.424,0,0,0-2.783-.756,5.588,5.588,0,0,0-2.809.756l-3.136,1.927Z" transform="translate(-506.609 -28.817)" fill="#c0c2f7"></path><path id="Path_19531" data-name="Path 19531" d="M2066.084,1076.408l11.161,61.063-13.457,7.769a10.88,10.88,0,0,1-10.868.008l-28.736-16.535a2.5,2.5,0,0,1-.006-4.327l15.272-8.845-11.183-60.974Z" transform="translate(-625.474 -344.335)" fill="#d3d4ff"></path><path id="Path_19532" data-name="Path 19532" d="M1837.835,595.776l.015,110.4v20.323a21.52,21.52,0,0,0,10.763,18.644l169.909,98.091a5.589,5.589,0,0,0,8.386-4.841l.007-23.06.014-107.629a21.516,21.516,0,0,0-10.763-18.652l-169.937-98.113A5.592,5.592,0,0,0,1837.835,595.776Z" transform="translate(-501.214 -32.579)" fill="#002d99"></path><path id="Path_19533" data-name="Path 19533" d="M2028.828,732.794l-181.8-105.2V733.031l181.8,104.962Z" transform="translate(-507.385 -57.699)" fill="#efefff"></path><path id="Path_19535" data-name="Path 19535" d="M1837.879,943.089v20.323a21.52,21.52,0,0,0,10.763,18.644l169.909,98.091a5.588,5.588,0,0,0,8.385-4.841l.007-23.06Z" transform="translate(-501.243 -269.497)" fill="#c8caff"></path><path id="Path_19536" data-name="Path 19536" d="M1956.729,779.573v75.363l112.783,65.11v-74.22a6.774,6.774,0,0,0-3.386-5.87l-106.99-61.776A1.606,1.606,0,0,0,1956.729,779.573Z" transform="translate(-581.03 -158.646)" fill="#d3d4ff"></path><path id="Path_19538" data-name="Path 19538" d="M1833.495,945.281V965.6a21.52,21.52,0,0,0,10.763,18.644l169.909,98.091a5.589,5.589,0,0,0,8.386-4.841l.007-23.06Z" transform="translate(-498.3 -270.969)" fill="#eaeaff"></path><path id="Path_19539" data-name="Path 19539" d="M1950.016,775.257v75.362l53.172,30.7,15.1,8.715,44.507,25.692V841.514a6.78,6.78,0,0,0-3.375-5.869l-107-61.773A1.6,1.6,0,0,0,1950.016,775.257Z" transform="translate(-576.523 -155.752)" fill="#f9d8bb"></path><path id="Path_19540" data-name="Path 19540" d="M1950.022,775.262v13.192L2062.8,853.685v-12.17a6.775,6.775,0,0,0-3.386-5.87l-106.99-61.776A1.606,1.606,0,0,0,1950.022,775.262Z" transform="translate(-576.527 -155.753)" fill="#eaeaff"></path><path id="Path_19541" data-name="Path 19541" d="M1964.146,801.322a4.768,4.768,0,0,0,2.157,3.736c1.192.688,2.157.13,2.157-1.245a4.768,4.768,0,0,0-2.157-3.737C1965.112,799.388,1964.146,799.946,1964.146,801.322Z" transform="translate(-586.009 -173.292)" fill="#fe77b0"></path><path id="Path_19542" data-name="Path 19542" d="M1967.026,804.365a2.676,2.676,0,0,0,1.211,2.1c.669.386,1.211.073,1.211-.7a2.676,2.676,0,0,0-1.211-2.1C1967.568,803.28,1967.026,803.593,1967.026,804.365Z" transform="translate(-587.942 -175.789)" fill="#ff94c6"></path><ellipse id="Ellipse_8866" data-name="Ellipse 8866" cx="1.761" cy="3.051" rx="1.761" ry="3.051" transform="matrix(0.866, -0.5, 0.5, 0.866, 1385.497, 632.395)" fill="#fcbb77"></ellipse><path id="Path_19543" data-name="Path 19543" d="M1992.136,819.215a2.676,2.676,0,0,0,1.211,2.1c.668.386,1.211.073,1.211-.7a2.677,2.677,0,0,0-1.211-2.1C1992.678,818.13,1992.136,818.443,1992.136,819.215Z" transform="translate(-604.799 -185.758)" fill="#ffcd84"></path><ellipse id="Ellipse_8867" data-name="Ellipse 8867" cx="1.761" cy="3.051" rx="1.761" ry="3.051" transform="translate(1393.682 637.377) rotate(-30)" fill="#30bfe5"></ellipse><path id="Path_19544" data-name="Path 19544" d="M2017.039,834.373a2.676,2.676,0,0,0,1.211,2.1c.669.386,1.211.073,1.211-.7a2.675,2.675,0,0,0-1.211-2.1C2017.581,833.288,2017.039,833.6,2017.039,834.373Z" transform="translate(-621.517 -195.934)" fill="#5ce6ff"></path><path id="Path_19545" data-name="Path 19545" d="M2094.187,1262.008l-37.794-21.93-8.224,4.763s24.595,3.76,38.084,21.748Z" transform="translate(-642.415 -468.872)" fill="#c8caff"></path><path id="Path_19547" data-name="Path 19547" d="M2140.782,975.639l30.518,17.62c.833.481,1.508-.03,1.508-1.14V968.767a3.608,3.608,0,0,0-1.508-2.88l-30.518-17.62c-.833-.481-1.507.03-1.507,1.139v23.352A3.61,3.61,0,0,0,2140.782,975.639Z" transform="translate(-703.576 -272.853)" fill="#ffa64e" opacity="0.4"></path><path id="Path_19548" data-name="Path 19548" d="M2141.126,1066.325l10.472,6.046c1.022.59,1.851-.036,1.851-1.4v-15.654a4.435,4.435,0,0,0-1.851-3.537l-10.472-6.046c-1.022-.59-1.851.036-1.851,1.4v15.654A4.432,4.432,0,0,0,2141.126,1066.325Z" transform="translate(-703.576 -338.256)" fill="#44afff"></path><g id="Group_13698" data-name="Group 13698" transform="translate(1391.479 667.201)"><g id="Group_13687" data-name="Group 13687" transform="translate(62.211 49.708)"><path id="Path_19549" data-name="Path 19549" d="M2194.556,1076.214l15,8.658c.3.174.545.033.545-.315a1.2,1.2,0,0,0-.545-.945l-15-8.658c-.3-.174-.545-.033-.545.315A1.205,1.205,0,0,0,2194.556,1076.214Z" transform="translate(-2194.011 -1074.88)" fill="#eaeaff"></path></g><g id="Group_13688" data-name="Group 13688" transform="translate(62.211 54.588)"><path id="Path_19550" data-name="Path 19550" d="M2194.556,1091.062l15,8.658c.3.174.545.033.545-.315a1.2,1.2,0,0,0-.545-.945l-15-8.658c-.3-.174-.545-.033-.545.315A1.2,1.2,0,0,0,2194.556,1091.062Z" transform="translate(-2194.011 -1089.728)" fill="#eaeaff"></path></g><g id="Group_13689" data-name="Group 13689" transform="translate(62.211 59.468)"><path id="Path_19551" data-name="Path 19551" d="M2194.556,1105.909l15,8.658c.3.174.545.033.545-.315a1.2,1.2,0,0,0-.545-.945l-15-8.658c-.3-.174-.545-.033-.545.315A1.2,1.2,0,0,0,2194.556,1105.909Z" transform="translate(-2194.011 -1104.575)" fill="#eaeaff"></path></g><g id="Group_13690" data-name="Group 13690" transform="translate(62.211 64.348)"><path id="Path_19552" data-name="Path 19552" d="M2194.556,1120.757l15,8.658c.3.174.545.033.545-.315a1.2,1.2,0,0,0-.545-.944l-15-8.659c-.3-.174-.545-.033-.545.315A1.2,1.2,0,0,0,2194.556,1120.757Z" transform="translate(-2194.011 -1119.423)" fill="#eaeaff"></path></g><g id="Group_13691" data-name="Group 13691" transform="translate(62.211 69.228)"><path id="Path_19553" data-name="Path 19553" d="M2194.556,1135.6l15,8.658c.3.174.545.033.545-.315a1.2,1.2,0,0,0-.545-.945l-15-8.658c-.3-.174-.545-.033-.545.315A1.2,1.2,0,0,0,2194.556,1135.6Z" transform="translate(-2194.011 -1134.27)" fill="#eaeaff"></path></g><g id="Group_13692" data-name="Group 13692" transform="translate(0 12.182)"><path id="Path_19554" data-name="Path 19554" d="M2005.282,962.042l19.087,11.02c.3.174.545.033.545-.315a1.2,1.2,0,0,0-.545-.945l-19.087-11.02c-.3-.174-.545-.033-.545.315A1.2,1.2,0,0,0,2005.282,962.042Z" transform="translate(-2004.737 -960.708)" fill="#eaeaff"></path></g><g id="Group_13693" data-name="Group 13693" transform="translate(2.272 18.374)"><path id="Path_19555" data-name="Path 19555" d="M2012.194,980.881l14.543,8.4c.3.174.545.033.545-.315a1.2,1.2,0,0,0-.545-.945l-14.543-8.4c-.3-.174-.545-.033-.545.315A1.2,1.2,0,0,0,2012.194,980.881Z" transform="translate(-2011.649 -979.547)" fill="#eaeaff"></path></g><g id="Group_13694" data-name="Group 13694" transform="translate(4.272 24.408)"><path id="Path_19556" data-name="Path 19556" d="M2018.28,999.242l10.542,6.086c.3.174.545.033.545-.315a1.205,1.205,0,0,0-.545-.945l-10.542-6.086c-.3-.174-.545-.033-.545.315A1.205,1.205,0,0,0,2018.28,999.242Z" transform="translate(-2017.735 -997.908)" fill="#eaeaff"></path></g><g id="Group_13695" data-name="Group 13695" transform="translate(5.544 30.023)"><path id="Path_19557" data-name="Path 19557" d="M2022.149,1016.323l8,4.618c.3.174.545.033.545-.315a1.205,1.205,0,0,0-.545-.945l-8-4.618c-.3-.174-.545-.033-.545.315A1.2,1.2,0,0,0,2022.149,1016.323Z" transform="translate(-2021.604 -1014.989)" fill="#eaeaff"></path></g><g id="Group_13696" data-name="Group 13696" transform="translate(6.544 35.48)"><path id="Path_19558" data-name="Path 19558" d="M2025.192,1032.928l6,3.463c.3.174.545.033.545-.315a1.2,1.2,0,0,0-.545-.945l-6-3.463c-.3-.174-.545-.033-.545.315A1.2,1.2,0,0,0,2025.192,1032.928Z" transform="translate(-2024.647 -1031.594)" fill="#eaeaff"></path></g><g id="Group_13697" data-name="Group 13697" transform="translate(32.175)"><path id="Path_19559" data-name="Path 19559" d="M2103.173,977.435c.3.174.545.033.545-.315V924.665a1.2,1.2,0,0,0-.545-.945c-.3-.174-.545-.033-.545.315V976.49A1.2,1.2,0,0,0,2103.173,977.435Z" transform="translate(-2102.628 -923.646)" fill="#eaeaff"></path></g></g><path id="Path_19560" data-name="Path 19560" d="M1991.356,891.541l27.25,15.733c.709.409,1.283-.025,1.283-.971V886.925a3.075,3.075,0,0,0-1.283-2.453l-27.25-15.733c-.709-.409-1.283.025-1.283.971v19.378A3.075,3.075,0,0,0,1991.356,891.541Z" transform="translate(-603.414 -219.481)" fill="#ffa64e" opacity="0.4"></path></g><g id="img" transform="translate(-1091.225 -541.645)"><path id="Path_19562" data-name="Path 19562" d="M1737.576,641.138l-77.429-44.7c-2.224-1.284-4.026-4.728-4.026-7.693v-43.57c0-2.965,1.8-4.328,4.026-3.044l77.429,44.7c2.224,1.284,4.026,4.728,4.026,7.693v43.57C1741.6,641.059,1739.8,642.422,1737.576,641.138Z" transform="translate(-379.226)" fill="#44afff" opacity="0.76"></path><path id="Path_19563" data-name="Path 19563" d="M1723.971,663.953l-45.692-26.38,23.129-17.305,14.342,27.768Z" transform="translate(-394.101 -52.78)" fill="#3964ff"></path><path id="Path_19564" data-name="Path 19564" d="M1833.119,724.526l-19.367-11.181-8.22-15.918,9.805-7.33Z" transform="translate(-479.528 -99.658)" fill="#3964ff"></path><ellipse id="Ellipse_8868" data-name="Ellipse 8868" cx="2.958" cy="5.123" rx="2.958" ry="5.123" transform="translate(1318.466 585.526) rotate(-30.001)" fill="#3964ff"></ellipse></g><g id="video" transform="translate(-1091.225 -541.645)"><path id="Path_19561" data-name="Path 19561" d="M1770.426,872.607l-58.26-33.637a5.216,5.216,0,0,1-2.178-4.161V786.878c0-1.6.975-2.341,2.178-1.646l58.26,33.636a5.215,5.215,0,0,1,2.178,4.161V870.96C1772.6,872.564,1771.629,873.3,1770.426,872.607Z" transform="translate(-415.388 -163.349)" fill="#44afff" opacity="0.76"></path><path id="Path_19565" data-name="Path 19565" d="M1782.669,854.859l25.045,31.156s-25.045,2.3-25.045,2.237Z" transform="translate(-464.18 -210.267)" fill="#fbc97b"></path></g><g transform="translate(-1091.225 -565.854)" opacity="0.421"><path id="Path_19566" data-name="Path 19566" d="M2418.273,842.577v88.285l-63.013-36.381V818.792l11.643-5.873Z" transform="translate(-848.571 -182.11)" fill="#fbc97b"></path><path id="Path_19567" data-name="Path 19567" d="M2366.9,812.918v12.6l-11.643-6.722Z" transform="translate(-848.571 -182.11)" fill="#f79e5b"></path><g id="Group_13707" data-name="Group 13707" transform="translate(1513.512 646.657)"><g id="Group_13699" data-name="Group 13699" transform="translate(11.348)"><path id="Path_19568" data-name="Path 19568" d="M2448.188,884.22,2411.264,862.9a1.592,1.592,0,0,1-.721-1.248c0-.46.322-.646.721-.416l36.924,21.318a1.592,1.592,0,0,1,.721,1.248C2448.909,884.264,2448.586,884.45,2448.188,884.22Z" transform="translate(-2410.543 -861.14)" fill="#eaeaff"></path></g><g id="Group_13700" data-name="Group 13700" transform="translate(0 0.72)"><path id="Path_19569" data-name="Path 19569" d="M2425.011,892.962l-48.272-27.87a1.591,1.591,0,0,1-.72-1.248c0-.46.322-.646.72-.416l48.272,27.87a1.591,1.591,0,0,1,.721,1.248C2425.731,893.006,2425.409,893.192,2425.011,892.962Z" transform="translate(-2376.018 -863.329)" fill="#eaeaff"></path></g><g id="Group_13701" data-name="Group 13701" transform="translate(0 7.991)"><path id="Path_19570" data-name="Path 19570" d="M2425.011,915.085l-48.272-27.87a1.59,1.59,0,0,1-.72-1.248c0-.46.322-.646.72-.416l48.272,27.87a1.591,1.591,0,0,1,.721,1.248C2425.731,915.128,2425.409,915.314,2425.011,915.085Z" transform="translate(-2376.018 -885.452)" fill="#eaeaff"></path></g><g id="Group_13702" data-name="Group 13702" transform="translate(0 15.262)"><path id="Path_19571" data-name="Path 19571" d="M2425.011,937.2l-48.272-27.87a1.591,1.591,0,0,1-.72-1.248c0-.46.322-.646.72-.416l48.272,27.87a1.591,1.591,0,0,1,.721,1.248C2425.731,937.249,2425.409,937.435,2425.011,937.2Z" transform="translate(-2376.018 -907.573)" fill="#eaeaff"></path></g><g id="Group_13703" data-name="Group 13703" transform="translate(0 22.533)"><path id="Path_19572" data-name="Path 19572" d="M2425.011,959.327l-48.272-27.87a1.591,1.591,0,0,1-.72-1.248c0-.46.322-.646.72-.416l48.272,27.87a1.592,1.592,0,0,1,.721,1.248C2425.731,959.371,2425.409,959.557,2425.011,959.327Z" transform="translate(-2376.018 -929.695)" fill="#eaeaff"></path></g><g id="Group_13704" data-name="Group 13704" transform="translate(11.348 40.349)"><path id="Path_19573" data-name="Path 19573" d="M2448.188,1006.98l-36.924-21.318a1.591,1.591,0,0,1-.721-1.248c0-.46.322-.646.721-.416l36.924,21.319a1.591,1.591,0,0,1,.721,1.248C2448.909,1007.024,2448.586,1007.21,2448.188,1006.98Z" transform="translate(-2410.543 -983.899)" fill="#eaeaff"></path></g><g id="Group_13705" data-name="Group 13705" transform="translate(0 41.069)"><path id="Path_19574" data-name="Path 19574" d="M2425.011,1015.722l-48.272-27.87a1.591,1.591,0,0,1-.72-1.248c0-.46.322-.646.72-.416l48.272,27.87a1.591,1.591,0,0,1,.721,1.248C2425.731,1015.766,2425.409,1015.952,2425.011,1015.722Z" transform="translate(-2376.018 -986.09)" fill="#eaeaff"></path></g><g id="Group_13706" data-name="Group 13706" transform="translate(0 48.34)"><path id="Path_19575" data-name="Path 19575" d="M2425.011,1037.844l-48.272-27.87a1.591,1.591,0,0,1-.72-1.248c0-.46.322-.646.72-.416l48.272,27.87a1.592,1.592,0,0,1,.721,1.248C2425.731,1037.888,2425.409,1038.074,2425.011,1037.844Z" transform="translate(-2376.018 -1008.212)" fill="#eaeaff"></path></g></g></g><g id="keyboard" transform="translate(170.936 217.648)"><path id="Path_19592" data-name="Path 19592" d="M1611.317,1312.551l-.021,2.7,2.7-1.578Z" transform="translate(-1611.295 -1276.817)" fill="#d2d3ff"></path><path id="Path_19593" data-name="Path 19593" d="M2223.134,1456.433l.029-2.594-2.55,1.2Z" transform="translate(-2020.341 -1371.666)" fill="#d2d3ff"></path><path id="Path_19594" data-name="Path 19594" d="M1813.635,1294.782l-61.515,34.89a2.055,2.055,0,0,1-1.849.063l-138.662-81.48c-.472-.277-.409-.755.141-1.067l61.557-34.914a2.055,2.055,0,0,1,1.85-.062l138.62,81.5C1814.248,1293.993,1814.185,1294.47,1813.635,1294.782Z" transform="translate(-1611.292 -1209.329)" fill="#d2d3ff"></path><path id="Path_19595" data-name="Path 19595" d="M1813.7,1286.593l-61.515,34.89a2.057,2.057,0,0,1-1.85.063l-138.662-81.481c-.472-.277-.409-.755.141-1.066l61.557-34.914a2.056,2.056,0,0,1,1.85-.062l138.621,81.5C1814.311,1285.8,1814.248,1286.281,1813.7,1286.593Z" transform="translate(-1611.334 -1203.831)" fill="#eef"></path><path id="Path_19596" data-name="Path 19596" d="M2168.217,1452.353l4.922,2.892a1.027,1.027,0,0,0,.924-.031l5.734-3.252c.275-.156.306-.394.071-.533l-4.922-2.892a1.027,1.027,0,0,0-.925.031l-5.734,3.252C2168.012,1451.976,2167.981,1452.215,2168.217,1452.353Z" transform="translate(-1985.06 -1368.043)" fill="#5f5495"></path><path id="Path_19597" data-name="Path 19597" d="M2139.579,1435.525l4.922,2.892a1.027,1.027,0,0,0,.924-.031l5.734-3.252c.274-.156.306-.394.07-.533l-4.922-2.892a1.026,1.026,0,0,0-.924.031l-5.734,3.252C2139.374,1435.148,2139.343,1435.387,2139.579,1435.525Z" transform="translate(-1965.835 -1356.746)" fill="#5f5495"></path><path id="Path_19598" data-name="Path 19598" d="M2110.941,1418.7l4.922,2.892a1.028,1.028,0,0,0,.924-.031l5.734-3.252c.275-.156.306-.394.07-.533l-4.922-2.892a1.027,1.027,0,0,0-.924.031l-5.734,3.252C2110.736,1418.32,2110.7,1418.559,2110.941,1418.7Z" transform="translate(-1946.61 -1345.449)" fill="#5f5495"></path><path id="Path_19599" data-name="Path 19599" d="M2082.3,1401.869l4.922,2.893a1.028,1.028,0,0,0,.924-.031l5.734-3.252c.275-.156.306-.394.071-.533l-4.922-2.892a1.028,1.028,0,0,0-.924.032l-5.734,3.252C2082.1,1401.492,2082.067,1401.73,2082.3,1401.869Z" transform="translate(-1927.384 -1334.152)" fill="#5f5495"></path><path id="Path_19600" data-name="Path 19600" d="M2053.665,1385.041l4.922,2.893a1.027,1.027,0,0,0,.924-.031l5.734-3.252c.275-.156.306-.394.07-.533l-4.922-2.892a1.026,1.026,0,0,0-.924.031l-5.734,3.252C2053.461,1384.664,2053.43,1384.9,2053.665,1385.041Z" transform="translate(-1908.16 -1322.855)" fill="#5f5495"></path><path id="Path_19601" data-name="Path 19601" d="M2025.027,1368.213l4.922,2.892a1.027,1.027,0,0,0,.925-.031l5.734-3.252c.275-.156.306-.394.071-.533l-4.922-2.892a1.028,1.028,0,0,0-.924.031l-5.734,3.252C2024.823,1367.836,2024.792,1368.074,2025.027,1368.213Z" transform="translate(-1888.934 -1311.558)" fill="#5f5495"></path><path id="Path_19602" data-name="Path 19602" d="M1996.389,1351.385l4.922,2.892a1.027,1.027,0,0,0,.924-.031l5.734-3.252c.275-.156.306-.394.071-.533l-4.922-2.892a1.027,1.027,0,0,0-.924.031l-5.734,3.252C1996.185,1351.008,1996.154,1351.246,1996.389,1351.385Z" transform="translate(-1869.709 -1300.261)" fill="#5f5495"></path><path id="Path_19603" data-name="Path 19603" d="M1967.752,1334.557l4.922,2.892a1.026,1.026,0,0,0,.924-.031l5.734-3.252c.274-.156.306-.395.07-.533l-4.922-2.892a1.028,1.028,0,0,0-.925.031l-5.734,3.252C1967.547,1334.18,1967.516,1334.418,1967.752,1334.557Z" transform="translate(-1850.484 -1288.964)" fill="#5f5495"></path><path id="Path_19604" data-name="Path 19604" d="M1939.114,1317.729l4.922,2.892a1.027,1.027,0,0,0,.924-.031l5.734-3.252c.275-.156.306-.395.071-.533l-4.922-2.892a1.027,1.027,0,0,0-.924.031l-5.734,3.252C1938.909,1317.352,1938.878,1317.59,1939.114,1317.729Z" transform="translate(-1831.259 -1277.667)" fill="#5f5495"></path><path id="Path_19605" data-name="Path 19605" d="M1910.476,1300.9l4.922,2.892a1.027,1.027,0,0,0,.924-.031l5.734-3.252c.275-.156.306-.395.07-.533l-4.922-2.893a1.028,1.028,0,0,0-.924.031l-5.734,3.252C1910.271,1300.524,1910.24,1300.762,1910.476,1300.9Z" transform="translate(-1812.034 -1266.37)" fill="#5f5495"></path><path id="Path_19606" data-name="Path 19606" d="M1881.838,1284.073l4.922,2.892a1.027,1.027,0,0,0,.925-.031l5.734-3.252c.275-.156.306-.394.07-.533l-4.922-2.892a1.027,1.027,0,0,0-.924.031l-5.734,3.252C1881.634,1283.7,1881.6,1283.934,1881.838,1284.073Z" transform="translate(-1792.809 -1255.073)" fill="#5f5495"></path><path id="Path_19607" data-name="Path 19607" d="M1853.2,1267.244l4.922,2.892a1.027,1.027,0,0,0,.925-.031l5.734-3.252c.275-.156.306-.394.071-.533l-4.922-2.892a1.027,1.027,0,0,0-.924.031l-5.734,3.252C1853,1266.867,1852.965,1267.106,1853.2,1267.244Z" transform="translate(-1773.584 -1243.776)" fill="#5f5495"></path><path id="Path_19608" data-name="Path 19608" d="M1824.563,1250.416l4.922,2.892a1.026,1.026,0,0,0,.924-.031l5.734-3.252c.274-.156.306-.394.07-.533l-4.922-2.892a1.027,1.027,0,0,0-.925.031l-5.734,3.252C1824.358,1250.039,1824.327,1250.278,1824.563,1250.416Z" transform="translate(-1754.358 -1232.479)" fill="#5f5495"></path><path id="Path_19609" data-name="Path 19609" d="M1776.708,1222.3l11.238,6.6a1.027,1.027,0,0,0,.924-.031l5.734-3.252c.274-.156.306-.394.07-.533l-11.238-6.6a1.027,1.027,0,0,0-.924.031l-5.734,3.252C1776.5,1221.919,1776.472,1222.158,1776.708,1222.3Z" transform="translate(-1722.233 -1213.601)" fill="#5f5495"></path><path id="Path_19610" data-name="Path 19610" d="M1748.268,1244.111l-4.917-2.889c-.237-.139-.206-.38.071-.536l5.728-3.249a1.033,1.033,0,0,1,.93-.031l4.917,2.889c.237.139.205.38-.071.536l-5.728,3.248A1.034,1.034,0,0,1,1748.268,1244.111Z" transform="translate(-1699.839 -1226.306)" fill="#5f5495"></path><path id="Path_19611" data-name="Path 19611" d="M1776.906,1260.939l-4.917-2.889c-.237-.139-.206-.38.071-.536l5.728-3.249a1.035,1.035,0,0,1,.93-.031l4.917,2.889c.237.139.206.38-.071.536l-5.728,3.248A1.034,1.034,0,0,1,1776.906,1260.939Z" transform="translate(-1719.065 -1237.603)" fill="#5f5495"></path><path id="Path_19612" data-name="Path 19612" d="M1805.544,1277.768l-4.916-2.889c-.238-.139-.206-.38.071-.536l5.728-3.248a1.035,1.035,0,0,1,.931-.031l4.916,2.889c.237.139.206.38-.071.536l-5.727,3.249A1.035,1.035,0,0,1,1805.544,1277.768Z" transform="translate(-1738.29 -1248.9)" fill="#5f5495"></path><path id="Path_19613" data-name="Path 19613" d="M1834.182,1294.6l-4.917-2.889c-.237-.139-.205-.38.071-.536l5.728-3.248a1.034,1.034,0,0,1,.931-.031l4.917,2.889c.237.139.206.379-.071.536l-5.728,3.248A1.033,1.033,0,0,1,1834.182,1294.6Z" transform="translate(-1757.515 -1260.197)" fill="#5f5495"></path><path id="Path_19614" data-name="Path 19614" d="M1862.82,1311.423l-4.917-2.889c-.237-.139-.205-.38.071-.536l5.728-3.248a1.036,1.036,0,0,1,.931-.031l4.916,2.889c.237.14.205.38-.071.537l-5.728,3.249A1.033,1.033,0,0,1,1862.82,1311.423Z" transform="translate(-1776.74 -1271.494)" fill="#5f5495"></path><path id="Path_19615" data-name="Path 19615" d="M1891.458,1328.251l-4.917-2.889c-.237-.139-.205-.379.071-.536l5.728-3.248a1.034,1.034,0,0,1,.93-.031l4.917,2.889c.237.139.205.38-.071.536l-5.728,3.249A1.032,1.032,0,0,1,1891.458,1328.251Z" transform="translate(-1795.965 -1282.791)" fill="#5f5495"></path><path id="Path_19616" data-name="Path 19616" d="M1920.1,1345.079l-4.916-2.889c-.237-.14-.206-.38.071-.537l5.728-3.248a1.034,1.034,0,0,1,.93-.031l4.916,2.889c.238.139.206.38-.071.536l-5.728,3.249A1.033,1.033,0,0,1,1920.1,1345.079Z" transform="translate(-1815.19 -1294.088)" fill="#5f5495"></path><path id="Path_19617" data-name="Path 19617" d="M1948.733,1361.907l-4.916-2.889c-.237-.14-.206-.38.071-.536l5.728-3.249a1.034,1.034,0,0,1,.93-.031l4.916,2.889c.237.139.206.38-.071.536l-5.728,3.249A1.033,1.033,0,0,1,1948.733,1361.907Z" transform="translate(-1834.416 -1305.385)" fill="#5f5495"></path><path id="Path_19618" data-name="Path 19618" d="M1977.371,1378.736l-4.917-2.889c-.237-.14-.206-.38.071-.536l5.728-3.249a1.034,1.034,0,0,1,.93-.031l4.916,2.889c.237.139.206.38-.071.536l-5.728,3.249A1.033,1.033,0,0,1,1977.371,1378.736Z" transform="translate(-1853.641 -1316.682)" fill="#5f5495"></path><path id="Path_19619" data-name="Path 19619" d="M2006.009,1395.564l-4.917-2.889c-.237-.14-.205-.38.071-.536l5.728-3.249a1.034,1.034,0,0,1,.931-.032l4.916,2.889c.237.14.206.38-.071.536l-5.728,3.249A1.033,1.033,0,0,1,2006.009,1395.564Z" transform="translate(-1872.866 -1327.979)" fill="#5f5495"></path><path id="Path_19620" data-name="Path 19620" d="M2034.647,1412.392l-4.917-2.889c-.237-.14-.205-.38.071-.536l5.728-3.249a1.035,1.035,0,0,1,.931-.031l4.917,2.889c.237.14.205.38-.071.536l-5.728,3.249A1.033,1.033,0,0,1,2034.647,1412.392Z" transform="translate(-1892.091 -1339.276)" fill="#5f5495"></path><path id="Path_19621" data-name="Path 19621" d="M2063.285,1429.22l-4.917-2.889c-.237-.14-.206-.38.071-.537l5.728-3.249a1.035,1.035,0,0,1,.93-.032l4.917,2.889c.237.14.205.38-.071.536l-5.727,3.249A1.034,1.034,0,0,1,2063.285,1429.22Z" transform="translate(-1911.316 -1350.573)" fill="#5f5495"></path><path id="Path_19622" data-name="Path 19622" d="M2091.923,1446.048l-4.917-2.889c-.237-.139-.206-.38.071-.536l5.727-3.249a1.033,1.033,0,0,1,.93-.031l4.917,2.889c.238.14.206.38-.071.536l-5.728,3.249A1.034,1.034,0,0,1,2091.923,1446.048Z" transform="translate(-1930.541 -1361.87)" fill="#5f5495"></path><path id="Path_19623" data-name="Path 19623" d="M2126.876,1466.587l-11.233-6.6c-.237-.139-.206-.38.071-.536l5.728-3.249a1.033,1.033,0,0,1,.93-.031l11.233,6.6c.237.139.206.38-.071.536l-5.727,3.248A1.035,1.035,0,0,1,2126.876,1466.587Z" transform="translate(-1949.766 -1373.167)" fill="#5f5495"></path><path id="Path_19624" data-name="Path 19624" d="M1722.8,1267.674l-12.821-7.534c-.236-.138-.2-.377.07-.532l5.735-3.253a1.026,1.026,0,0,1,.923-.031l12.821,7.534c.236.138.2.377-.07.532l-5.735,3.253A1.024,1.024,0,0,1,1722.8,1267.674Z" transform="translate(-1677.438 -1239.006)" fill="#5f5495"></path><path id="Path_19625" data-name="Path 19625" d="M1769.578,1295.159l-4.923-2.893c-.236-.138-.2-.377.07-.532l5.735-3.253a1.027,1.027,0,0,1,.923-.031l4.923,2.893c.235.138.2.377-.07.533l-5.735,3.253A1.025,1.025,0,0,1,1769.578,1295.159Z" transform="translate(-1714.141 -1260.573)" fill="#5f5495"></path><path id="Path_19626" data-name="Path 19626" d="M1798.215,1311.987l-4.923-2.893c-.236-.139-.2-.377.07-.532l5.735-3.253a1.026,1.026,0,0,1,.923-.031l4.923,2.893c.235.138.2.377-.07.532l-5.736,3.253A1.028,1.028,0,0,1,1798.215,1311.987Z" transform="translate(-1733.366 -1271.87)" fill="#5f5495"></path><path id="Path_19627" data-name="Path 19627" d="M1826.853,1328.815l-4.923-2.893c-.236-.138-.2-.377.07-.532l5.735-3.253a1.026,1.026,0,0,1,.923-.031l4.923,2.893c.236.138.2.377-.07.532l-5.735,3.253A1.025,1.025,0,0,1,1826.853,1328.815Z" transform="translate(-1752.591 -1283.167)" fill="#5f5495"></path><path id="Path_19628" data-name="Path 19628" d="M1855.491,1345.644l-4.923-2.893c-.235-.138-.2-.377.071-.532l5.735-3.253a1.026,1.026,0,0,1,.923-.031l4.923,2.893c.236.138.2.377-.07.532l-5.735,3.253A1.026,1.026,0,0,1,1855.491,1345.644Z" transform="translate(-1771.816 -1294.464)" fill="#5f5495"></path><path id="Path_19629" data-name="Path 19629" d="M1884.129,1362.472l-4.923-2.893c-.235-.138-.2-.377.07-.532l5.736-3.253a1.026,1.026,0,0,1,.923-.031l4.923,2.893c.236.138.2.377-.07.532l-5.735,3.253A1.026,1.026,0,0,1,1884.129,1362.472Z" transform="translate(-1791.042 -1305.761)" fill="#5f5495"></path><path id="Path_19630" data-name="Path 19630" d="M1912.767,1379.3l-4.923-2.893c-.235-.138-.2-.377.07-.532l5.736-3.253a1.025,1.025,0,0,1,.923-.031l4.923,2.893c.235.138.2.377-.07.532l-5.735,3.253A1.026,1.026,0,0,1,1912.767,1379.3Z" transform="translate(-1810.267 -1317.058)" fill="#5f5495"></path><path id="Path_19631" data-name="Path 19631" d="M1941.4,1396.128l-4.923-2.893c-.236-.138-.2-.377.07-.532l5.736-3.253a1.025,1.025,0,0,1,.923-.031l4.923,2.893c.235.138.2.376-.07.532l-5.736,3.253A1.025,1.025,0,0,1,1941.4,1396.128Z" transform="translate(-1829.492 -1328.355)" fill="#5f5495"></path><path id="Path_19632" data-name="Path 19632" d="M1970.042,1412.956l-4.923-2.893c-.236-.138-.2-.377.07-.532l5.735-3.253a1.025,1.025,0,0,1,.923-.031l4.923,2.893c.235.138.2.377-.07.532l-5.735,3.253A1.026,1.026,0,0,1,1970.042,1412.956Z" transform="translate(-1848.717 -1339.652)" fill="#5f5495"></path><path id="Path_19633" data-name="Path 19633" d="M1998.68,1429.784l-4.923-2.893c-.235-.138-.2-.377.07-.532l5.735-3.253a1.026,1.026,0,0,1,.923-.031l4.923,2.893c.235.138.2.377-.07.532l-5.736,3.253A1.026,1.026,0,0,1,1998.68,1429.784Z" transform="translate(-1867.942 -1350.949)" fill="#5f5495"></path><path id="Path_19634" data-name="Path 19634" d="M2027.318,1446.612l-4.923-2.893c-.235-.138-.2-.377.07-.532l5.735-3.253a1.026,1.026,0,0,1,.923-.031l4.923,2.893c.236.138.2.377-.07.532l-5.735,3.253A1.025,1.025,0,0,1,2027.318,1446.612Z" transform="translate(-1887.167 -1362.246)" fill="#5f5495"></path><path id="Path_19635" data-name="Path 19635" d="M2055.956,1463.44l-4.923-2.893c-.235-.138-.2-.377.071-.532l5.735-3.253a1.025,1.025,0,0,1,.923-.031l4.923,2.893c.236.138.2.377-.07.532l-5.736,3.253A1.025,1.025,0,0,1,2055.956,1463.44Z" transform="translate(-1906.393 -1373.543)" fill="#5f5495"></path><path id="Path_19636" data-name="Path 19636" d="M2093.513,1485.509l-11.24-6.6c-.236-.138-.2-.377.07-.532l5.736-3.253a1.025,1.025,0,0,1,.923-.031l11.239,6.6c.236.138.2.377-.071.532l-5.735,3.253A1.025,1.025,0,0,1,2093.513,1485.509Z" transform="translate(-1927.365 -1385.867)" fill="#5f5495"></path><path id="Path_19637" data-name="Path 19637" d="M1723.754,1352.289l-5.732-3.368c-.238-.14-.207-.381.071-.539l5.723-3.246a1.04,1.04,0,0,1,.935-.031l5.732,3.368c.239.14.206.382-.072.539l-5.723,3.246A1.037,1.037,0,0,1,1723.754,1352.289Z" transform="translate(-1682.834 -1298.606)" fill="#5f5495"></path><path id="Path_19638" data-name="Path 19638" d="M1751.085,1368.35l-6.371-3.744c-.239-.14-.207-.382.071-.539l5.723-3.246a1.038,1.038,0,0,1,.935-.032l6.371,3.744c.238.14.206.382-.071.539l-5.723,3.246A1.039,1.039,0,0,1,1751.085,1368.35Z" transform="translate(-1700.753 -1309.135)" fill="#5f5495"></path><path id="Path_19639" data-name="Path 19639" d="M1827.189,1413.07l-49.413-29.036c-.239-.14-.207-.382.071-.539l5.723-3.246a1.037,1.037,0,0,1,.935-.031l49.413,29.036c.239.14.207.382-.071.539l-5.723,3.246A1.038,1.038,0,0,1,1827.189,1413.07Z" transform="translate(-1722.949 -1322.178)" fill="#5f5495"></path><path id="Path_19640" data-name="Path 19640" d="M1946.719,1483.308l-4.912-2.886c-.239-.14-.207-.381.071-.539l5.723-3.246a1.039,1.039,0,0,1,.935-.032l4.912,2.886c.239.14.207.382-.071.539l-5.722,3.246A1.038,1.038,0,0,1,1946.719,1483.308Z" transform="translate(-1833.066 -1386.885)" fill="#5f5495"></path><path id="Path_19641" data-name="Path 19641" d="M1975.357,1500.136l-4.912-2.886c-.239-.14-.207-.381.071-.539l5.723-3.246a1.039,1.039,0,0,1,.935-.031l4.912,2.886c.239.14.207.382-.071.539l-5.723,3.246A1.038,1.038,0,0,1,1975.357,1500.136Z" transform="translate(-1852.291 -1398.182)" fill="#5f5495"></path><path id="Path_19642" data-name="Path 19642" d="M2004,1516.964l-4.912-2.887c-.238-.14-.207-.381.071-.539l5.723-3.246a1.04,1.04,0,0,1,.935-.031l4.912,2.886c.238.14.207.382-.071.539l-5.723,3.246A1.038,1.038,0,0,1,2004,1516.964Z" transform="translate(-1871.516 -1409.479)" fill="#5f5495"></path><path id="Path_19643" data-name="Path 19643" d="M2032.632,1533.792l-4.912-2.886c-.239-.14-.207-.382.071-.539l5.722-3.246a1.039,1.039,0,0,1,.935-.031l4.912,2.886c.239.14.207.382-.071.539l-5.723,3.246A1.038,1.038,0,0,1,2032.632,1533.792Z" transform="translate(-1890.741 -1420.776)" fill="#5f5495"></path><path id="Path_19644" data-name="Path 19644" d="M1688.229,1289.386l-14.639-8.6c-.236-.139-.2-.378.071-.534l5.732-3.251a1.027,1.027,0,0,1,.926-.031l14.639,8.6c.236.139.2.378-.071.534l-5.733,3.251A1.029,1.029,0,0,1,1688.229,1289.386Z" transform="translate(-1653.008 -1252.865)" fill="#5f5495"></path><path id="Path_19645" data-name="Path 19645" d="M1694.242,1338.735l-6.3-3.7c-.239-.14-.207-.382.071-.539l2.174-1.233a1.04,1.04,0,0,1,.935-.032l6.3,3.7c.238.14.206.382-.071.539l-2.174,1.233A1.038,1.038,0,0,1,1694.242,1338.735Z" transform="translate(-1662.644 -1290.636)" fill="#5f5495"></path><path id="Path_19646" data-name="Path 19646" d="M1669.012,1323.909l-6.3-3.7c-.239-.14-.207-.381.071-.539l2.174-1.233a1.04,1.04,0,0,1,.935-.031l6.3,3.7c.239.14.207.381-.072.539l-2.174,1.233A1.038,1.038,0,0,1,1669.012,1323.909Z" transform="translate(-1645.706 -1280.683)" fill="#5f5495"></path><path id="Path_19647" data-name="Path 19647" d="M1681.143,1317.029l-6.3-3.7c-.239-.14-.207-.382.071-.539l2.174-1.233a1.039,1.039,0,0,1,.935-.031l6.3,3.7c.238.14.206.381-.071.539l-2.174,1.233A1.039,1.039,0,0,1,1681.143,1317.029Z" transform="translate(-1653.85 -1276.063)" fill="#5f5495"></path><path id="Path_19648" data-name="Path 19648" d="M1643.781,1309.083l-6.3-3.7c-.238-.14-.206-.382.071-.539l2.174-1.233a1.041,1.041,0,0,1,.935-.031l6.3,3.7c.239.14.207.382-.071.539l-2.174,1.233A1.037,1.037,0,0,1,1643.781,1309.083Z" transform="translate(-1628.768 -1270.73)" fill="#5f5495"></path><path id="Path_19649" data-name="Path 19649" d="M1733.183,1315.8l-4.921-2.892c-.236-.139-.2-.378.07-.534l5.733-3.251a1.029,1.029,0,0,1,.926-.031l4.921,2.891c.236.139.2.378-.071.534l-5.732,3.251A1.028,1.028,0,0,1,1733.183,1315.8Z" transform="translate(-1689.71 -1274.432)" fill="#5f5495"></path><path id="Path_19650" data-name="Path 19650" d="M1761.821,1332.63l-4.921-2.892c-.236-.139-.2-.378.071-.534l5.733-3.251a1.028,1.028,0,0,1,.926-.031l4.921,2.891c.236.139.2.378-.071.534l-5.733,3.252A1.029,1.029,0,0,1,1761.821,1332.63Z" transform="translate(-1708.935 -1285.729)" fill="#5f5495"></path><path id="Path_19651" data-name="Path 19651" d="M1790.459,1349.458l-4.921-2.892c-.236-.139-.2-.378.071-.534l5.733-3.251a1.028,1.028,0,0,1,.926-.031l4.921,2.891c.236.139.2.378-.071.534l-5.733,3.252A1.029,1.029,0,0,1,1790.459,1349.458Z" transform="translate(-1728.16 -1297.026)" fill="#5f5495"></path><path id="Path_19652" data-name="Path 19652" d="M1819.1,1366.286l-4.921-2.892c-.236-.139-.2-.378.071-.534l5.732-3.251a1.028,1.028,0,0,1,.926-.031l4.921,2.891c.236.139.2.378-.071.534l-5.733,3.252A1.03,1.03,0,0,1,1819.1,1366.286Z" transform="translate(-1747.386 -1308.323)" fill="#5f5495"></path><path id="Path_19653" data-name="Path 19653" d="M1847.734,1383.114l-4.921-2.892c-.236-.139-.2-.378.07-.534l5.733-3.251a1.027,1.027,0,0,1,.926-.031l4.921,2.891c.236.139.2.378-.07.534l-5.732,3.252A1.03,1.03,0,0,1,1847.734,1383.114Z" transform="translate(-1766.61 -1319.62)" fill="#5f5495"></path><path id="Path_19654" data-name="Path 19654" d="M1876.372,1399.942l-4.921-2.892c-.236-.139-.2-.378.071-.534l5.732-3.251a1.03,1.03,0,0,1,.926-.031l4.921,2.892c.237.139.2.378-.07.534l-5.733,3.251A1.028,1.028,0,0,1,1876.372,1399.942Z" transform="translate(-1785.836 -1330.917)" fill="#5f5495"></path><path id="Path_19655" data-name="Path 19655" d="M1905.01,1416.77l-4.921-2.891c-.236-.139-.2-.378.07-.534l5.733-3.252a1.03,1.03,0,0,1,.926-.031l4.921,2.892c.236.139.2.377-.071.534l-5.733,3.251A1.028,1.028,0,0,1,1905.01,1416.77Z" transform="translate(-1805.061 -1342.214)" fill="#5f5495"></path><path id="Path_19656" data-name="Path 19656" d="M1933.648,1433.6l-4.921-2.891c-.236-.139-.2-.378.071-.534l5.732-3.252a1.029,1.029,0,0,1,.926-.031l4.921,2.892c.236.139.2.378-.071.534l-5.732,3.251A1.028,1.028,0,0,1,1933.648,1433.6Z" transform="translate(-1824.286 -1353.511)" fill="#5f5495"></path><path id="Path_19657" data-name="Path 19657" d="M1962.286,1450.426l-4.921-2.891c-.236-.139-.2-.378.071-.534l5.733-3.251a1.029,1.029,0,0,1,.926-.031l4.921,2.892c.236.139.2.378-.071.534l-5.732,3.251A1.029,1.029,0,0,1,1962.286,1450.426Z" transform="translate(-1843.511 -1364.808)" fill="#5f5495"></path><path id="Path_19658" data-name="Path 19658" d="M1990.924,1467.254l-4.921-2.891c-.236-.139-.2-.378.071-.534l5.733-3.252a1.029,1.029,0,0,1,.926-.031l4.921,2.892c.236.139.2.378-.071.534l-5.733,3.251A1.028,1.028,0,0,1,1990.924,1467.254Z" transform="translate(-1862.736 -1376.105)" fill="#5f5495"></path><path id="Path_19659" data-name="Path 19659" d="M2019.561,1484.082l-4.921-2.891c-.236-.139-.2-.378.07-.534l5.733-3.251a1.028,1.028,0,0,1,.926-.032l4.921,2.892c.236.139.2.378-.07.534l-5.733,3.251A1.029,1.029,0,0,1,2019.561,1484.082Z" transform="translate(-1881.961 -1387.402)" fill="#5f5495"></path><path id="Path_19660" data-name="Path 19660" d="M2053.3,1503.91l-13.1-7.7c-.236-.139-.2-.378.071-.534l5.732-3.251a1.029,1.029,0,0,1,.926-.031l13.1,7.7c.236.139.2.378-.071.534l-5.732,3.251A1.029,1.029,0,0,1,2053.3,1503.91Z" transform="translate(-1899.12 -1397.485)" fill="#5f5495"></path></g><g id="pencil" transform="translate(-1091.225 -541.645)"><path id="Path_19576" data-name="Path 19576" d="M1379.573,1144.726l3-1.731a5.041,5.041,0,0,1-.416-1.886,2.5,2.5,0,0,1,.248-1.156,8.781,8.781,0,0,1-.23-1.929,3.832,3.832,0,0,1,1.515-3.448l0,0,.06-.035.018-.011,5.974-3.492.006,0,.019-.011v0a3.805,3.805,0,0,1,3.794.389l.036.023,2.258-1.3h0a3.806,3.806,0,0,1,1.557-3.477v0l.023-.014,0,0,59.718-34.531-1.584-.918a1.061,1.061,0,0,0-1.07,0l-13.933,8.045a1.755,1.755,0,0,1-1.754-3.04l13.933-8.045a4.6,4.6,0,0,1,4.578,0l3.339,1.929,5.87-3.385,0,0a3.649,3.649,0,0,1,3.611.233l5.231-3.022h0l0,0h0a2.684,2.684,0,0,1,2.694.269,8.435,8.435,0,0,1,3.816,6.61,2.691,2.691,0,0,1-1.1,2.458h0l-.017.01,0,0-5,2.889c0,.085.011.171.011.255a3.809,3.809,0,0,1-1.553,3.475v0l-.019.01-.021.012-69.068,39.927,0,0a3.751,3.751,0,0,1-3.867-.343l-2.3,1.326a3.809,3.809,0,0,1-1.519,3.41l0,0-.056.032-.013.008-5.933,3.468,0,0a3.757,3.757,0,0,1-3.86-.347,8.866,8.866,0,0,1-1.625-1.227,2.542,2.542,0,0,1-1.091-.363,5.023,5.023,0,0,1-1.4-1.27l-3.005,1.734a.878.878,0,0,1-1.2-.321A.875.875,0,0,1,1379.573,1144.726Z" transform="translate(-193.278 -363.857)" fill="#f1f3ff"></path><path id="Path_19577" data-name="Path 19577" d="M1648.364,1068.81l4.2,7.127,1.281,2.169,7.665-4.426h.006l.018-.011a2.693,2.693,0,0,0,1.1-2.456,8.372,8.372,0,0,0-2.017-5.052l-.012-.012a6.819,6.819,0,0,0-1.789-1.549,3.432,3.432,0,0,0-1.7-.521,1.993,1.993,0,0,0-.994.251Z" transform="translate(-374.018 -350.721)" fill="#ff9526"></path><path id="Path_19578" data-name="Path 19578" d="M1661.136,1080.189l1.281,2.169,7.665-4.426h.006l.018-.011a2.693,2.693,0,0,0,1.1-2.456,8.371,8.371,0,0,0-2.017-5.052c.164.24,2.368,3.531-1.082,5.525C1665.5,1077.453,1662.539,1079.3,1661.136,1080.189Z" transform="translate(-382.592 -354.973)" fill="#fbaa6f"></path><path id="Path_19579" data-name="Path 19579" d="M1434.722,1112.511l6.385,10.9,1.327,2.268,69.068-39.928a.046.046,0,0,0,.023-.012l.017-.006v-.006a3.8,3.8,0,0,0,1.549-3.473,11.272,11.272,0,0,0-1.748-5.613,10.954,10.954,0,0,0-3.648-3.736,4.92,4.92,0,0,0-2.409-.737,2.809,2.809,0,0,0-1.438.38l-5.87,3.385-3.508,2.029Z" transform="translate(-230.596 -356.154)" fill="#44afff"></path><path id="Path_19580" data-name="Path 19580" d="M1454.147,1132.551l1.327,2.269,69.068-39.928a.046.046,0,0,0,.023-.011l.017-.006v-.006a3.8,3.8,0,0,0,1.549-3.473,11.272,11.272,0,0,0-1.748-5.613l-.006.006s2.724,5.145-.877,7.385-62.719,38.273-67.074,35.069Z" transform="translate(-243.637 -365.29)" fill="#7e98ff"></path><ellipse id="Ellipse_8869" data-name="Ellipse 8869" cx="4.406" cy="7.632" rx="4.406" ry="7.632" transform="matrix(0.866, -0.5, 0.5, 0.866, 1200.337, 758.548)" fill="#081773"></ellipse><ellipse id="Ellipse_8870" data-name="Ellipse 8870" cx="3.116" cy="5.397" rx="3.116" ry="5.397" transform="matrix(0.866, -0.5, 0.5, 0.866, 1194.9, 764.269)" fill="#a48aff"></ellipse><path id="Path_19581" data-name="Path 19581" d="M1414.639,1204.716l3.2,5.437,2.274,3.859,7.665-4.426.017-.011a2.7,2.7,0,0,0,1.1-2.461,7.767,7.767,0,0,0-1.14-3.795.045.045,0,0,1-.006-.017,7.782,7.782,0,0,0-2.672-2.795,3.417,3.417,0,0,0-1.7-.52,1.967,1.967,0,0,0-.988.251h-.006Z" transform="translate(-217.114 -441.957)" fill="#44afff"></path><path id="Path_19582" data-name="Path 19582" d="M1424.387,1216.96l2.275,3.859,7.665-4.426.017-.012a2.7,2.7,0,0,0,1.1-2.461,7.769,7.769,0,0,0-1.14-3.795c.07.24.836,2.847-.006,4.432-.889,1.655-6,3.409-9.027-.293Z" transform="translate(-223.658 -448.764)" fill="#7e98ff"></path><ellipse id="Ellipse_8871" data-name="Ellipse 8871" cx="4.406" cy="7.632" rx="4.406" ry="7.632" transform="matrix(0.866, -0.5, 0.5, 0.866, 1192.646, 762.946)" fill="#fccb82"></ellipse><path id="Path_19583" data-name="Path 19583" d="M1406.734,1221.4l-6,3.508-7.747-13.151,6.076-3.552Z" transform="translate(-202.577 -447.476)" fill="#fccb82"></path><ellipse id="Ellipse_8872" data-name="Ellipse 8872" cx="4.406" cy="7.632" rx="4.406" ry="7.632" transform="matrix(0.866, -0.5, 0.5, 0.866, 1186.66, 766.444)" fill="#fbaa6f"></ellipse><path id="Path_19584" data-name="Path 19584" d="M1558.265,1086.957a1.809,1.809,0,0,0,.216.292,1.752,1.752,0,0,0,2.181.351l13.933-8.045a1.062,1.062,0,0,1,1.07,0l1.584.918,1.485-.86,2.023-1.169-3.338-1.929a4.6,4.6,0,0,0-4.578,0l-13.933,8.045A1.757,1.757,0,0,0,1558.265,1086.957Z" transform="translate(-313.375 -358.659)" fill="#ff9526"></path><path id="Path_19585" data-name="Path 19585" d="M1559.4,1092.026a1.751,1.751,0,0,0,2.181.351l13.933-8.045a1.061,1.061,0,0,1,1.07,0l1.584.918,1.485-.859-1.316-.76a4.6,4.6,0,0,0-4.578,0l-13.933,8.045A1.679,1.679,0,0,0,1559.4,1092.026Z" transform="translate(-314.297 -363.437)" fill="#fbaa6f"></path><ellipse id="Ellipse_8873" data-name="Ellipse 8873" cx="3.116" cy="5.397" rx="3.116" ry="5.397" transform="translate(1188.896 767.735) rotate(-30)" fill="#44afff"></ellipse><path id="Path_19586" data-name="Path 19586" d="M1389.428,1229.566l1.639-2.56,5.184,8.867-3.174.081s1.067-2.655-.185-4.474A4.793,4.793,0,0,0,1389.428,1229.566Z" transform="translate(-200.19 -460.097)" fill="#44afff"></path><path id="Path_19587" data-name="Path 19587" d="M1388.331,1234.966a5.964,5.964,0,0,0,2.7,4.674c1.49.86,2.7.163,2.7-1.558a5.964,5.964,0,0,0-2.7-4.673C1389.539,1232.548,1388.331,1233.245,1388.331,1234.966Z" transform="translate(-199.453 -464.146)" fill="#081773"></path><path id="Path_19588" data-name="Path 19588" d="M1393.1,1240.006a2.517,2.517,0,0,0,1.128,1.959.716.716,0,0,0,.941-.041.937.937,0,0,0,.187-.614,2.481,2.481,0,0,0-1.128-1.953.914.914,0,0,0-.625-.146C1393.308,1239.269,1393.1,1239.555,1393.1,1240.006Z" transform="translate(-202.657 -468.281)" fill="#7e98ff"></path><path id="Path_19589" data-name="Path 19589" d="M1394.065,1239.824a1.733,1.733,0,0,0,.029.3,2.59,2.59,0,0,0,.889,1.515,1.241,1.241,0,0,0,.211.146.9.9,0,0,0,.625.14.937.937,0,0,0,.187-.614,1.211,1.211,0,0,0-.023-.251,2.535,2.535,0,0,0-.859-1.526,1.171,1.171,0,0,0-.246-.176.913.913,0,0,0-.625-.146A.938.938,0,0,0,1394.065,1239.824Z" transform="translate(-203.302 -468.281)" fill="#fccb82"></path><path id="Path_19590" data-name="Path 19590" d="M1379.252,1244.6a.879.879,0,0,0,1.2.322l4.508-2.6,1-.579a2.534,2.534,0,0,0-.859-1.526l-1.029.59-4.5,2.6A.875.875,0,0,0,1379.252,1244.6Z" transform="translate(-193.278 -468.962)" fill="#2e227c"></path></g><g id="book" transform="translate(-1091.225 -541.645)"><path id="Path_19546" data-name="Path 19546" d="M1938.642,1711.415l68.894,51.035,116.8-69.2-39.356-18.494Z" transform="translate(-568.888 -760.682)" fill="#f1f3ff"></path><path id="Path_19662" data-name="Path 19662" d="M2102.339,1651.306l-98.066,56.618-68.894-39.664a3.188,3.188,0,0,1,0-5.524l88.086-50.857a10.477,10.477,0,0,1,10.47,0Z" transform="translate(-565.625 -717.526)" fill="#0f32bf"></path><path id="Path_19663" data-name="Path 19663" d="M1958.714,1757.505v7.649l62.253,35.721.044-7.455S1970.8,1754.32,1958.714,1757.505Z" transform="translate(-582.362 -816.106)" fill="#f8f8ff"></path><path id="Path_19664" data-name="Path 19664" d="M2102.339,1611.5l-98.066,56.618-68.894-39.664a3.188,3.188,0,0,1,0-5.524l88.086-50.857a10.477,10.477,0,0,1,10.47,0Z" transform="translate(-565.625 -690.804)" fill="#44afff"></path><path id="Path_19665" data-name="Path 19665" d="M2148.25,1751.513V1764.6l98.067-56.618v-13.083Z" transform="translate(-709.601 -774.199)" fill="#081773"></path><path id="Path_19666" data-name="Path 19666" d="M2101.454,1581.452l-100.146,52.854-67.339-42.25a3.188,3.188,0,0,1,.206-5.52l89.953-47.477a10.477,10.477,0,0,1,10.463.394Z" transform="translate(-564.748 -668.771)" fill="#ffcd84"></path><path id="Path_19667" data-name="Path 19667" d="M1957.563,1674.889l-.291,7.644,60.852,38.059.327-7.448S1969.76,1672.165,1957.563,1674.889Z" transform="translate(-581.395 -760.682)" fill="#f8f8ff"></path><path id="Path_19668" data-name="Path 19668" d="M2142.394,1683.589l-.5,13.074,100.145-52.854.5-13.074Z" transform="translate(-705.337 -731.127)" fill="#a628ff"></path><path id="Path_19669" data-name="Path 19669" d="M2102.965,1541.674l-100.145,52.855-67.339-42.251a3.188,3.188,0,0,1,.207-5.52l89.953-47.476a10.476,10.476,0,0,1,10.462.394Z" transform="translate(-565.763 -642.067)" fill="#ffa64e"></path></g><g id="cabinet" transform="translate(-1091.225 -541.645)"><path id="Path_19591" data-name="Path 19591" d="M2458.928,1586.285l62.545,47.574,39.041-25.258-69.88-19.282Z" transform="translate(-918.166 -701.287)" fill="#f1f3ff"></path><path id="Path_19670" data-name="Path 19670" d="M2509.256,1362.394l49.595,47.671,16.542-9.522v-95.417l-66.107-38.167Z" transform="translate(-951.952 -486.917)" fill="#081773"></path><path id="Path_19671" data-name="Path 19671" d="M2458.928,1391.363l66.136,38.15V1334.1l-66.107-38.167Z" transform="translate(-918.166 -506.365)" fill="#44afff"></path><path id="Path_19672" data-name="Path 19672" d="M2459.021,1276.48l16.542-9.522,66.107,38.167-16.542,9.522Z" transform="translate(-918.229 -486.917)" fill="#7e98ff"></path><path id="Path_19673" data-name="Path 19673" d="M2546.1,1308.678l-2.179,1.259-12.644,7.279-57.1-32.958L2471.99,1283l14.836-8.539Z" transform="translate(-926.934 -491.953)" fill="#081773"></path><path id="Path_19674" data-name="Path 19674" d="M2548.4,1315.082l-12.644,7.279-57.1-32.958,12.645-7.279Z" transform="translate(-931.41 -497.098)" fill="#44afff"></path><path id="Path_19675" data-name="Path 19675" d="M2538.273,1383.774v8.45c0,1.335-.945,1.877-2.1,1.209l-36.724-21.208a4.62,4.62,0,0,1-2.091-3.627v-8.451c0-1.335.932-1.877,2.091-1.209l1.8,1.045.038.012,34.885,20.151A4.634,4.634,0,0,1,2538.273,1383.774Z" transform="translate(-943.963 -548.474)" fill="#081773"></path><path id="Path_19676" data-name="Path 19676" d="M2538.273,1386.493v8.451c0,1.335-.945,1.876-2.1,1.209l-36.724-21.208a4.62,4.62,0,0,1-2.091-3.627v-5.063a1.527,1.527,0,0,1,.516-1.3l.177-.113,3.2-2.141.038.012,34.885,20.151A4.634,4.634,0,0,1,2538.273,1386.493Z" transform="translate(-943.963 -551.192)" fill="#ffcd84"></path><path id="Path_19677" data-name="Path 19677" d="M2538.273,1394.047v5.076c0,1.335-.945,1.876-2.1,1.209l-36.724-21.208a4.62,4.62,0,0,1-2.091-3.627v-5.063a1.527,1.527,0,0,1,.516-1.3l.177-.113a1.532,1.532,0,0,1,1.4.189l36.724,21.208A4.633,4.633,0,0,1,2538.273,1394.047Z" transform="translate(-943.963 -555.371)" fill="#7e98ff"></path><path id="Path_19678" data-name="Path 19678" d="M2538.256,1402.005v2.453c0,1.338-.938,1.88-2.1,1.211l-36.723-21.2a4.632,4.632,0,0,1-2.1-3.632v-2.453c0-1.338.938-1.879,2.1-1.211l36.723,21.2A4.632,4.632,0,0,1,2538.256,1402.005Z" transform="translate(-943.952 -560.712)" fill="#ffcd84"></path><path id="Path_19679" data-name="Path 19679" d="M2542.068,1408.013v1.209a.1.1,0,0,1-.012.063c-.038.6-.793.668-1.713.151l-30.15-17.4a3.312,3.312,0,0,1-1.726-2.2v-1.209c0-.479.416-.655,1.008-.5a2.589,2.589,0,0,1,.718.3l30.15,17.4A3.256,3.256,0,0,1,2542.068,1408.013Z" transform="translate(-951.422 -568.216)" fill="#ffa64e"></path><path id="Path_19680" data-name="Path 19680" d="M2544.1,1408.12v1.209a.093.093,0,0,1-.013.063,2.2,2.2,0,0,1-.718-.29l-30.15-17.4a3.283,3.283,0,0,1-1.726-2.192v-1.221a.111.111,0,0,1,.013-.063,2.6,2.6,0,0,1,.718.3l30.15,17.4A3.256,3.256,0,0,1,2544.1,1408.12Z" transform="translate(-953.454 -568.323)" fill="#002d99"></path><path id="Path_19681" data-name="Path 19681" d="M2538.273,1470.978v8.45c0,1.335-.945,1.877-2.1,1.209l-36.724-21.208a4.62,4.62,0,0,1-2.091-3.627v-8.45c0-1.335.932-1.876,2.091-1.209l1.8,1.045.038.013,34.885,20.15A4.634,4.634,0,0,1,2538.273,1470.978Z" transform="translate(-943.963 -607.015)" fill="#081773"></path><path id="Path_19682" data-name="Path 19682" d="M2538.273,1473.7v8.45c0,1.335-.945,1.877-2.1,1.209l-36.724-21.208a4.62,4.62,0,0,1-2.091-3.627v-5.063a1.528,1.528,0,0,1,.516-1.3l.177-.113,3.2-2.141.038.012,34.885,20.151A4.633,4.633,0,0,1,2538.273,1473.7Z" transform="translate(-943.963 -609.733)" fill="#ffcd84"></path><path id="Path_19683" data-name="Path 19683" d="M2538.273,1481.25v5.075c0,1.335-.945,1.877-2.1,1.209l-36.724-21.208a4.62,4.62,0,0,1-2.091-3.627v-5.063a1.528,1.528,0,0,1,.516-1.3l.177-.113a1.532,1.532,0,0,1,1.4.189l36.724,21.208A4.633,4.633,0,0,1,2538.273,1481.25Z" transform="translate(-943.963 -613.912)" fill="#7e98ff"></path><path id="Path_19684" data-name="Path 19684" d="M2538.256,1489.209v2.453c0,1.338-.938,1.88-2.1,1.211l-36.723-21.2a4.632,4.632,0,0,1-2.1-3.632v-2.453c0-1.338.938-1.879,2.1-1.211l36.723,21.2A4.631,4.631,0,0,1,2538.256,1489.209Z" transform="translate(-943.952 -619.254)" fill="#ffcd84"></path><path id="Path_19685" data-name="Path 19685" d="M2542.068,1495.217v1.209a.1.1,0,0,1-.012.063c-.038.6-.793.668-1.713.151l-30.15-17.405a3.311,3.311,0,0,1-1.726-2.2v-1.209c0-.479.416-.655,1.008-.5a2.594,2.594,0,0,1,.718.3l30.15,17.4A3.256,3.256,0,0,1,2542.068,1495.217Z" transform="translate(-951.422 -626.758)" fill="#ffa64e"></path><path id="Path_19686" data-name="Path 19686" d="M2544.1,1495.324v1.209a.093.093,0,0,1-.013.063,2.2,2.2,0,0,1-.718-.29l-30.15-17.405a3.283,3.283,0,0,1-1.726-2.191v-1.222a.11.11,0,0,1,.013-.063,2.6,2.6,0,0,1,.718.3l30.15,17.4A3.255,3.255,0,0,1,2544.1,1495.324Z" transform="translate(-953.454 -626.865)" fill="#002d99"></path><path id="Path_19687" data-name="Path 19687" d="M2538.273,1558.182v8.45c0,1.335-.945,1.876-2.1,1.209l-36.724-21.208a4.62,4.62,0,0,1-2.091-3.627v-8.45c0-1.335.932-1.877,2.091-1.209l1.8,1.045.038.013,34.885,20.15A4.634,4.634,0,0,1,2538.273,1558.182Z" transform="translate(-943.963 -665.557)" fill="#081773"></path><path id="Path_19688" data-name="Path 19688" d="M2538.273,1560.9v8.45c0,1.335-.945,1.876-2.1,1.209l-36.724-21.208a4.62,4.62,0,0,1-2.091-3.627v-5.063a1.527,1.527,0,0,1,.516-1.3l.177-.113,3.2-2.141.038.013,34.885,20.15A4.634,4.634,0,0,1,2538.273,1560.9Z" transform="translate(-943.963 -668.275)" fill="#ffcd84"></path><path id="Path_19689" data-name="Path 19689" d="M2538.273,1568.454v5.075c0,1.335-.945,1.876-2.1,1.209l-36.724-21.208a4.62,4.62,0,0,1-2.091-3.627v-5.063a1.527,1.527,0,0,1,.516-1.3l.177-.113a1.532,1.532,0,0,1,1.4.189l36.724,21.208A4.634,4.634,0,0,1,2538.273,1568.454Z" transform="translate(-943.963 -672.454)" fill="#7e98ff"></path><path id="Path_19690" data-name="Path 19690" d="M2538.256,1576.412v2.453c0,1.338-.938,1.88-2.1,1.211l-36.723-21.2a4.633,4.633,0,0,1-2.1-3.632v-2.453c0-1.338.938-1.88,2.1-1.211l36.723,21.2A4.632,4.632,0,0,1,2538.256,1576.412Z" transform="translate(-943.952 -677.795)" fill="#ffcd84"></path><path id="Path_19691" data-name="Path 19691" d="M2542.068,1582.42v1.209a.1.1,0,0,1-.012.063c-.038.6-.793.667-1.713.151l-30.15-17.405a3.312,3.312,0,0,1-1.726-2.2v-1.209c0-.479.416-.655,1.008-.5a2.605,2.605,0,0,1,.718.3l30.15,17.405A3.256,3.256,0,0,1,2542.068,1582.42Z" transform="translate(-951.422 -685.299)" fill="#ffa64e"></path><path id="Path_19692" data-name="Path 19692" d="M2544.1,1582.528v1.209a.1.1,0,0,1-.013.063,2.2,2.2,0,0,1-.718-.29l-30.15-17.4a3.283,3.283,0,0,1-1.726-2.191v-1.222a.111.111,0,0,1,.013-.063,2.6,2.6,0,0,1,.718.3l30.15,17.405A3.255,3.255,0,0,1,2544.1,1582.528Z" transform="translate(-953.454 -685.406)" fill="#002d99"></path></g><g id="letter" transform="translate(-1091.225 -541.645)"><path id="Path_19693" data-name="Path 19693" d="M1262.357,952.283c0,7.569-3.2,12.43-8.085,13.79v.025l-66.722,17.619-2.343.617-3.073.818-2.178,2.153-53.449,52.895-.013-.012c-3.6,3.8-9.521,4.231-16.234.353a37.919,37.919,0,0,1-11.158-10.39l-.025-.025a47.79,47.79,0,0,1-6.952-13.6l59.8-33.084,14.583-2.418,6.2-1.045,3.086-.516,4.03-.68.025-.012.667-.869.869-1.159.391-.491.642-.856,2.116-2.771,9.6-12.531,58.927-32.606C1258.655,934.764,1262.357,944.1,1262.357,952.283Z" transform="translate(-0.604 -259.021)" fill="#f1f3ff"></path><path id="Path_19694" data-name="Path 19694" d="M1272.073,920.941l.012.025-66.735,17.619-2.343.617-3.073.818-2.179,2.154-53.449,52.895-27.833-47.957,67.831-11.221,6.2-1.045,3.085-.516,4.043-.68.013-.012.668-.869.881-1.159.378-.491.655-.856,2.116-2.771,40.389-52.756a9.745,9.745,0,0,1,1.2-1.549l.076-.113.012.013c3.6-3.816,9.534-4.257,16.259-.378a36.5,36.5,0,0,1,9.7,8.513c6.083,7.43,10.188,17.316,10.188,25.931C1280.159,914.719,1276.972,919.581,1272.073,920.941Z" transform="translate(-16.951 -220.432)" fill="#ffe1ce"></path><path id="Path_19695" data-name="Path 19695" d="M1119.372,1125.979c3.124,7.922,8.879,25.729-2.493,25.1-7.292-.4-16.36-8.727-16.927-9.244l-.025-.025c-5.252-7.166-8.7-16.12-8.7-24.017,0-12.682,8.9-17.82,19.886-11.486a39.293,39.293,0,0,1,12.594,12.456l-5.894,3.5S1118.478,1123.725,1119.372,1125.979Z" transform="translate(0 -377.248)" fill="#f9d7c6"></path><path id="Path_19696" data-name="Path 19696" d="M1148.822,1171.732c0,12.682-8.9,17.82-19.886,11.473a38.079,38.079,0,0,1-11.158-10.39c.567.516,9.634,8.841,16.926,9.244,14.621.806.932-28.815.932-28.815l5.894-3.5C1145.976,1156.531,1148.822,1164.566,1148.822,1171.732Z" transform="translate(-17.826 -408.228)" fill="#f4ccb6"></path><path id="Path_19697" data-name="Path 19697" d="M1362.851,1061.663l-5.415,1.436-2.179,2.154a17.373,17.373,0,0,0-4.169-7.846l4.043-.68,2.594-3.388A20.262,20.262,0,0,1,1362.851,1061.663Z" transform="translate(-174.451 -343.51)" fill="#fbc97b"></path><path id="Path_19698" data-name="Path 19698" d="M1362.521,956.237l-2.116,2.771-.655.856c.705-8.9,2.783-37.668-.051-36.774-2.871.894-.932,29.243-.327,37.265l-.881,1.159-.668.869-.012.012s-7.229-45.6,1.839-49.381C1366.766,910.055,1364.033,942.245,1362.521,956.237Z" transform="translate(-177.132 -249.18)" fill="#fbc97b"></path><path id="Path_19699" data-name="Path 19699" d="M1240.762,1008.473c6.99,3.841,17.191,5.478,24.47,6.183l-6.2,1.045c-11.637-.97-26.964-3.589-30.125-10.692-5.252-11.763,9.232-19.949,17.833-14.282,7.393,4.862,22.241,18.173,26.3,21.851l-.667.869c-4.672-3.3-17.77-12.342-24.571-15.163C1240.939,995.451,1228.823,1001.9,1240.762,1008.473Z" transform="translate(-91.681 -300.243)" fill="#fbc97b"></path><path id="Path_19700" data-name="Path 19700" d="M1134.7,1196.8c-7.292-.4-16.36-8.727-16.926-9.244,0,0,11.561,9.509,14.735,3.8s-1.7-15.981-1.7-15.981l6.385-3.678C1140.321,1179.62,1146.077,1197.427,1134.7,1196.8Z" transform="translate(-17.826 -422.967)" fill="#e5ac89"></path><path id="Path_19701" data-name="Path 19701" d="M1448.4,943.854l.012.025L1381.68,961.5l-2.343.617-.2-1.524s67.655-19.835,69.38-37.857a46.354,46.354,0,0,0-2.216-18.6c6.083,7.43,10.188,17.317,10.188,25.931C1456.488,937.633,1453.3,942.494,1448.4,943.854Z" transform="translate(-193.28 -243.345)" fill="#f4ccb6"></path></g><g id="tree" transform="translate(-1091.225 -541.645)"><path id="Path_19702" data-name="Path 19702" d="M1746.036,1170.225h0v-.731l-.635.009.008.2-6.332-3.655a4.725,4.725,0,0,0-4.723,0l-6.332,3.65v-.137l-.624-.067v.726h0v.006h0a.276.276,0,0,0,.139.237l6.822,3.939a4.726,4.726,0,0,0,4.725,0l6.809-3.931A.276.276,0,0,0,1746.036,1170.225Z" transform="translate(-427.077 -418.749)" fill="#d7d7ff"></path><path id="Path_19703" data-name="Path 19703" d="M1727.54,1168.236l6.822,3.939a4.726,4.726,0,0,0,4.725,0l6.809-3.931a.28.28,0,0,0,0-.484l-6.818-3.936a4.725,4.725,0,0,0-4.723,0l-6.816,3.929A.28.28,0,0,0,1727.54,1168.236Z" transform="translate(-427.077 -417.255)" fill="#f8f8ff"></path><path id="Path_19704" data-name="Path 19704" d="M1726.566,1076.682l4.8,33.247,4.8,2.771v-30.478Z" transform="translate(-426.517 -359.181)" fill="#081773"></path><path id="Path_19705" data-name="Path 19705" d="M1765.371,1076.682l-4.807,33.251-4.792,2.767v-30.478Z" transform="translate(-446.123 -359.181)" fill="#44afff"></path><path id="Path_19706" data-name="Path 19706" d="M1711.97,1065.26v-1.828l14.39-6.487,14.4,6.487v1.828l-14.4,8.312Z" transform="translate(-416.719 -345.931)" fill="#f7b775"></path><path id="Path_19707" data-name="Path 19707" d="M1711.97,1059.7l14.39-8.316,14.4,8.316-14.4,8.312Z" transform="translate(-416.719 -342.195)" fill="#f7f9ff"></path><path id="Path_19708" data-name="Path 19708" d="M1745.764,1065.359l-1.583.914-8.016,4.626-8.016-4.626-1.583-.914,9.6-5.544Z" transform="translate(-426.517 -347.857)" fill="#cfcff7"></path><path id="Path_19709" data-name="Path 19709" d="M1747.415,1070.007l-4.183,2.414-1.481.856-2.351,1.357-3.061-1.766-1-.578-3.953-2.282,3.73-2.154,1.4-.812,2.882-1.664,2.245,1.3,1.825,1.053Z" transform="translate(-429.751 -351.592)" fill="#192572"></path><path id="Path_19710" data-name="Path 19710" d="M1750.907,1024.2c-.073,1.934-.165,3.573-.234,4.692l-1.481.856-2.351,1.357-3.061-1.766-1-.578c-.058-.874-.153-2.454-.223-4.436-.168-4.849-.187-12.108.841-17.334.651-3.313,1.722-5.807,3.444-6.363,2.406-.775,3.5,3.606,3.942,9.234A132.176,132.176,0,0,1,1750.907,1024.2Z" transform="translate(-437.192 -308.067)" fill="#44afff"></path><path id="Path_19711" data-name="Path 19711" d="M1734.93,1021.935l1.5-.7c-.011-1.794-.046-3.649-.111-5.455l-1.637-.876,1.562-.913c-.09-1.83-.215-3.568-.385-5.085-.38-3.383-.984-5.679-1.905-5.507-1.215.225-1.9,3.689-2.271,7.969l1.449.28-1.535.775c-.144,1.929-.233,3.976-.286,5.939l1.257.8-1.283.312c-.032,1.547-.043,3.013-.044,4.294l1.327,1.007-1.323.416c.011,1.945.043,3.2.043,3.2l3.953,2.282,1,.578c.077-1.368.146-3.43.176-5.825.012-.928.018-1.907.018-2.915Z" transform="translate(-429.654 -309.978)" fill="#7e98ff"></path><path id="Path_19712" data-name="Path 19712" d="M1766.924,1039.3l1.866-.654c.127-1.346.244-2.939.29-4.569l-1.8-.457,1.822-.566c.008-.966-.014-1.929-.078-2.846l-1.509-.31,1.431-.583c-.3-2.806-1.061-4.995-2.7-5.16-.816-.084-1.456.512-1.957,1.558a17.831,17.831,0,0,0-1.235,5.116l1.405.844-1.551.48c-.137,1.427-.221,2.93-.27,4.4l1.821.9-1.857.551c-.006.336-.011.668-.014,1-.006.634-.006,1.248,0,1.836l1.092.268-1.087.4c.02,1.763.071,3.225.106,4.1l1.481-.856,4.183-2.414s.137-.906.293-2.312Z" transform="translate(-450.692 -323.91)" fill="#081773"></path></g><g id="wall-chart" transform="translate(-196.625 -176.22)"><g id="Group_1519" data-name="Group 1519"><g id="Group_1518" data-name="Group 1518"><g id="Group_1517" data-name="Group 1517"><path id="Path_128" data-name="Path 128" d="M470.8,376.342l-80.743-49.156V247.874L470.8,297.029Z" fill="#e2e9fb"></path></g></g></g><g id="Group_1533" data-name="Group 1533"><g id="Group_1532" data-name="Group 1532"><g id="Group_1522" data-name="Group 1522"><g id="Group_1521" data-name="Group 1521"><g id="Group_1520" data-name="Group 1520"><path id="Path_129" data-name="Path 129" d="M401.406,267.566l-.03,13.378-3.089-1.911.029-13.378Z" fill="#fdab00"></path></g></g></g><g id="Group_1525" data-name="Group 1525"><g id="Group_1524" data-name="Group 1524"><g id="Group_1523" data-name="Group 1523"><path id="Path_130" data-name="Path 130" d="M405.316,274.035l-.018,9.333-3.091-1.91.019-9.333Z" fill="#139be8"></path></g></g></g><g id="Group_1528" data-name="Group 1528"><g id="Group_1527" data-name="Group 1527"><g id="Group_1526" data-name="Group 1526"><path id="Path_131" data-name="Path 131" d="M409.242,274.77l-.023,11.025-3.092-1.912.023-11.024Z" fill="#346bb3"></path></g></g></g><g id="Group_1531" data-name="Group 1531"><g id="Group_1530" data-name="Group 1530"><g id="Group_1529" data-name="Group 1529"><path id="Path_132" data-name="Path 132" d="M413.151,280.749l-.011,7.424-3.09-1.912.012-7.423Z" fill="#fff"></path></g></g></g></g></g><g id="Group_1552" data-name="Group 1552"><g id="Group_1535" data-name="Group 1535" opacity="0.3"><g id="Group_1534" data-name="Group 1534"><path id="Path_133" data-name="Path 133" d="M464.058,322l-11.481-7.411-.082-18.028,11.563,7.464Z" fill="#4d5ba5"></path></g></g><g id="Group_1537" data-name="Group 1537" opacity="0.3"><g id="Group_1536" data-name="Group 1536"><path id="Path_134" data-name="Path 134" d="M464.054,331.036l-5.6-3.615-.021-4.769,5.622,3.629Z" fill="#4d5ba5"></path></g></g><g id="Group_1539" data-name="Group 1539" opacity="0.3"><g id="Group_1538" data-name="Group 1538"><path id="Path_135" data-name="Path 135" d="M442.935,291.607l2.668,1.721c.758.49,1.381,2.273,1.389,3.978s-.6,2.7-1.361,2.207l-2.666-1.721c-.759-.49-1.382-2.277-1.39-3.978S442.176,291.117,442.935,291.607Z" fill="#4d5ba5"></path></g></g><g id="Group_1541" data-name="Group 1541" opacity="0.3"><g id="Group_1540" data-name="Group 1540"><path id="Path_136" data-name="Path 136" d="M438.992,295.233l-5.415-3.5-.029-6.189,5.416,3.5Z" fill="#4d5ba5"></path></g></g><g id="Group_1543" data-name="Group 1543" opacity="0.3"><g id="Group_1542" data-name="Group 1542"><path id="Path_137" data-name="Path 137" d="M431.94,290.679l-5.416-3.5-.028-6.189,5.415,3.5Z" fill="#4d5ba5"></path></g></g><g id="Group_1545" data-name="Group 1545" opacity="0.3"><g id="Group_1544" data-name="Group 1544"><path id="Path_138" data-name="Path 138" d="M424.884,286.124l-5.416-3.5-.029-6.188,5.417,3.5Z" fill="#4d5ba5"></path></g></g><g id="Group_1547" data-name="Group 1547" opacity="0.3"><g id="Group_1546" data-name="Group 1546"><path id="Path_139" data-name="Path 139" d="M464.053,340.511l-5.557-3.588-.022-4.769,5.579,3.6Z" fill="#4d5ba5"></path></g></g><g id="Group_1549" data-name="Group 1549" opacity="0.3"><g id="Group_1548" data-name="Group 1548"><path id="Path_140" data-name="Path 140" d="M464.053,349.982l-5.514-3.559-.021-4.769,5.535,3.573Z" fill="#4d5ba5"></path></g></g><g id="Group_1551" data-name="Group 1551" opacity="0.3"><g id="Group_1550" data-name="Group 1550"><path id="Path_141" data-name="Path 141" d="M464.054,359.452l-5.47-3.531-.022-4.77,5.493,3.546Z" fill="#4d5ba5"></path></g></g></g><g id="Group_1588" data-name="Group 1588"><g id="Group_1587" data-name="Group 1587"><g id="Group_1569" data-name="Group 1569"><g id="Group_1556" data-name="Group 1556"><g id="Group_1555" data-name="Group 1555"><g id="Group_1554" data-name="Group 1554"><g id="Group_1553" data-name="Group 1553"><path id="Path_142" data-name="Path 142" d="M403.664,288.48v3.156l-4.9-3.043v-3.159Z" fill="#4d5ba5"></path></g></g></g></g><g id="Group_1560" data-name="Group 1560"><g id="Group_1559" data-name="Group 1559"><g id="Group_1558" data-name="Group 1558"><g id="Group_1557" data-name="Group 1557"><path id="Path_143" data-name="Path 143" d="M403.664,296.85l-4.9-3.042v-3.157l4.9,3.043Z" fill="#4d5ba5"></path></g></g></g></g><g id="Group_1564" data-name="Group 1564"><g id="Group_1563" data-name="Group 1563"><g id="Group_1562" data-name="Group 1562"><g id="Group_1561" data-name="Group 1561"><path id="Path_144" data-name="Path 144" d="M403.664,302.068l-4.9-3.043v-3.157l4.9,3.043Z" fill="#4d5ba5"></path></g></g></g></g><g id="Group_1568" data-name="Group 1568"><g id="Group_1567" data-name="Group 1567"><g id="Group_1566" data-name="Group 1566"><g id="Group_1565" data-name="Group 1565"><path id="Path_145" data-name="Path 145" d="M403.664,307.285l-4.9-3.043v-3.156l4.9,3.042Z" fill="#4d5ba5"></path></g></g></g></g></g><g id="Group_1586" data-name="Group 1586"><g id="Group_1573" data-name="Group 1573"><g id="Group_1572" data-name="Group 1572"><g id="Group_1571" data-name="Group 1571"><g id="Group_1570" data-name="Group 1570"><path id="Path_146" data-name="Path 146" d="M397.94,284.925v3.156l-.913-.566v-3.157Z" fill="#4d5ba5"></path></g></g></g></g><g id="Group_1577" data-name="Group 1577"><g id="Group_1576" data-name="Group 1576"><g id="Group_1575" data-name="Group 1575"><g id="Group_1574" data-name="Group 1574"><path id="Path_147" data-name="Path 147" d="M397.94,290.142V293.3l-.913-.566v-3.156Z" fill="#4d5ba5"></path></g></g></g></g><g id="Group_1581" data-name="Group 1581"><g id="Group_1580" data-name="Group 1580"><g id="Group_1579" data-name="Group 1579"><g id="Group_1578" data-name="Group 1578"><path id="Path_148" data-name="Path 148" d="M397.94,295.359v3.156l-.914-.566v-3.156Z" fill="#4d5ba5"></path></g></g></g></g><g id="Group_1585" data-name="Group 1585"><g id="Group_1584" data-name="Group 1584"><g id="Group_1583" data-name="Group 1583"><g id="Group_1582" data-name="Group 1582"><path id="Path_149" data-name="Path 149" d="M397.94,300.576v3.155l-.914-.567V300.01Z" fill="#4d5ba5"></path></g></g></g></g></g></g></g><g id="Group_1591" data-name="Group 1591"><g id="Group_1590" data-name="Group 1590"><g id="Group_1589" data-name="Group 1589"><path id="Path_150" data-name="Path 150" d="M414.425,296.547c7.649,4.82,12.487,38.628,19.106,43.044,5.8,3.867,4.511-30.49,9.735-31.113,5.143-.611,8.491,37.853,6.88,50.832l-45.867-28.052S407.291,292.049,414.425,296.547Z" fill="#fff"></path></g></g></g><g id="Group_1594" data-name="Group 1594"><g id="Group_1593" data-name="Group 1593"><g id="Group_1592" data-name="Group 1592"><path id="Path_151" data-name="Path 151" d="M410.269,317.936c4.924-1.071,6.583,15.734,10.987,15.2,6.26-.749,4.354-23.537,9.652-21.528,4.486,1.7,5.6,24.293,7.312,30.527,2.278,8.281,2.928-.1,6.243-.489,4.655-.538,6.7,7.561,5.629,17.654l-45.813-28.053S404.279,319.241,410.269,317.936Z" fill="#346bb3"></path></g></g></g><g id="Group_1597" data-name="Group 1597"><g id="Group_1596" data-name="Group 1596"><g id="Group_1595" data-name="Group 1595"><path id="Path_152" data-name="Path 152" d="M410.972,325c6.964,4.563,6.58,10.97,12.331,14.571,5.473,3.427,9.123-18.188,12.861-15.9,5.65,3.468,2.128,25.42,5.44,27.495,2.943,1.84,3.431-5.214,5.763-3.676,3.8,2.513,2.789,11.807,2.789,11.807L404.28,331.252S404.6,320.83,410.972,325Z" fill="#fdab00"></path></g></g></g><g id="Group_1674" data-name="Group 1674"><g id="Group_1600" data-name="Group 1600"><g id="Group_1599" data-name="Group 1599"><g id="Group_1598" data-name="Group 1598"><path id="Path_153" data-name="Path 153" d="M382.029,303.654,329.2,270.649v-46.7l52.834,33Z" fill="#e2e9fb"></path></g></g></g><g id="Group_1614" data-name="Group 1614"><g id="Group_1613" data-name="Group 1613"><g id="Group_1603" data-name="Group 1603"><g id="Group_1602" data-name="Group 1602"><g id="Group_1601" data-name="Group 1601"><path id="Path_154" data-name="Path 154" d="M336.58,232.99l-.023,10.588-2.376-1.508.023-10.588Z" fill="#fdab00"></path></g></g></g><g id="Group_1606" data-name="Group 1606"><g id="Group_1605" data-name="Group 1605"><g id="Group_1604" data-name="Group 1604"><path id="Path_155" data-name="Path 155" d="M339.585,238.1l-.015,7.387-2.376-1.509.014-7.386Z" fill="#139be8"></path></g></g></g><g id="Group_1609" data-name="Group 1609"><g id="Group_1608" data-name="Group 1608"><g id="Group_1607" data-name="Group 1607"><path id="Path_156" data-name="Path 156" d="M342.605,238.682l-.019,8.724-2.377-1.509.019-8.724Z" fill="#346bb3"></path></g></g></g><g id="Group_1612" data-name="Group 1612"><g id="Group_1611" data-name="Group 1611"><g id="Group_1610" data-name="Group 1610"><path id="Path_157" data-name="Path 157" d="M345.61,243.409l-.009,5.876-2.375-1.509.01-5.875Z" fill="#fff"></path></g></g></g></g></g><g id="Group_1633" data-name="Group 1633"><g id="Group_1616" data-name="Group 1616" opacity="0.3"><g id="Group_1615" data-name="Group 1615"><path id="Path_158" data-name="Path 158" d="M376.692,268.585l-6.427-4.195-.047-10.213,6.473,4.224Z" fill="#4d5ba5"></path></g></g><g id="Group_1618" data-name="Group 1618" opacity="0.3"><g id="Group_1617" data-name="Group 1617"><path id="Path_159" data-name="Path 159" d="M376.691,273.708l-3.135-2.046-.011-2.7,3.147,2.054Z" fill="#4d5ba5"></path></g></g><g id="Group_1620" data-name="Group 1620" opacity="0.3"><g id="Group_1619" data-name="Group 1619"><path id="Path_160" data-name="Path 160" d="M364.87,253.815l1.493.976a3.084,3.084,0,0,1,.778,2.255c0,.968-.336,1.528-.762,1.25l-1.492-.973a3.083,3.083,0,0,1-.78-2.256C364.1,254.1,364.445,253.538,364.87,253.815Z" fill="#4d5ba5"></path></g></g><g id="Group_1622" data-name="Group 1622" opacity="0.3"><g id="Group_1621" data-name="Group 1621"><path id="Path_161" data-name="Path 161" d="M362.663,255.871l-3.032-1.979-.016-3.506,3.032,1.979Z" fill="#4d5ba5"></path></g></g><g id="Group_1624" data-name="Group 1624" opacity="0.3"><g id="Group_1623" data-name="Group 1623"><path id="Path_162" data-name="Path 162" d="M358.715,253.294l-3.032-1.979-.017-3.506,3.032,1.978Z" fill="#4d5ba5"></path></g></g><g id="Group_1626" data-name="Group 1626" opacity="0.3"><g id="Group_1625" data-name="Group 1625"><path id="Path_163" data-name="Path 163" d="M354.765,250.716l-3.032-1.98-.017-3.506,3.034,1.985Z" fill="#4d5ba5"></path></g></g><g id="Group_1628" data-name="Group 1628" opacity="0.3"><g id="Group_1627" data-name="Group 1627"><path id="Path_164" data-name="Path 164" d="M376.691,279.074l-3.11-2.03-.012-2.7,3.123,2.038Z" fill="#4d5ba5"></path></g></g><g id="Group_1630" data-name="Group 1630" opacity="0.3"><g id="Group_1629" data-name="Group 1629"><path id="Path_165" data-name="Path 165" d="M376.69,284.436l-3.086-2.014-.012-2.7,3.1,2.022Z" fill="#4d5ba5"></path></g></g><g id="Group_1632" data-name="Group 1632" opacity="0.3"><g id="Group_1631" data-name="Group 1631"><path id="Path_166" data-name="Path 166" d="M376.692,289.8l-3.062-2-.012-2.7,3.074,2.006Z" fill="#4d5ba5"></path></g></g></g><g id="Group_1669" data-name="Group 1669"><g id="Group_1668" data-name="Group 1668"><g id="Group_1650" data-name="Group 1650"><g id="Group_1637" data-name="Group 1637"><g id="Group_1636" data-name="Group 1636"><g id="Group_1635" data-name="Group 1635"><g id="Group_1634" data-name="Group 1634"><path id="Path_167" data-name="Path 167" d="M338.306,247.933v2.021l-3.049-1.942v-2.02Z" fill="#4d5ba5"></path></g></g></g></g><g id="Group_1641" data-name="Group 1641"><g id="Group_1640" data-name="Group 1640"><g id="Group_1639" data-name="Group 1639"><g id="Group_1638" data-name="Group 1638"><path id="Path_168" data-name="Path 168" d="M338.306,253.293l-3.049-1.942V249.33l3.049,1.942Z" fill="#4d5ba5"></path></g></g></g></g><g id="Group_1645" data-name="Group 1645"><g id="Group_1644" data-name="Group 1644"><g id="Group_1643" data-name="Group 1643"><g id="Group_1642" data-name="Group 1642"><path id="Path_169" data-name="Path 169" d="M338.306,256.632l-3.047-1.941V252.67l3.047,1.942Z" fill="#4d5ba5"></path></g></g></g></g><g id="Group_1649" data-name="Group 1649"><g id="Group_1648" data-name="Group 1648"><g id="Group_1647" data-name="Group 1647"><g id="Group_1646" data-name="Group 1646"><path id="Path_170" data-name="Path 170" d="M338.306,259.972l-3.047-1.942v-2.02l3.049,1.941Z" fill="#4d5ba5"></path></g></g></g></g></g><g id="Group_1667" data-name="Group 1667"><g id="Group_1654" data-name="Group 1654"><g id="Group_1653" data-name="Group 1653"><g id="Group_1652" data-name="Group 1652"><g id="Group_1651" data-name="Group 1651"><path id="Path_171" data-name="Path 171" d="M334.748,245.666v2.02l-.568-.362V245.3Z" fill="#4d5ba5"></path></g></g></g></g><g id="Group_1658" data-name="Group 1658"><g id="Group_1657" data-name="Group 1657"><g id="Group_1656" data-name="Group 1656"><g id="Group_1655" data-name="Group 1655"><path id="Path_172" data-name="Path 172" d="M334.748,251.025l-.568-.362v-2.02l.568.361Z" fill="#4d5ba5"></path></g></g></g></g><g id="Group_1662" data-name="Group 1662"><g id="Group_1661" data-name="Group 1661"><g id="Group_1660" data-name="Group 1660"><g id="Group_1659" data-name="Group 1659"><path id="Path_173" data-name="Path 173" d="M334.748,254.365,334.18,254v-2.02l.568.361Z" fill="#4d5ba5"></path></g></g></g></g><g id="Group_1666" data-name="Group 1666"><g id="Group_1665" data-name="Group 1665"><g id="Group_1664" data-name="Group 1664"><g id="Group_1663" data-name="Group 1663"><path id="Path_174" data-name="Path 174" d="M334.748,255.684v2.02l-.568-.361v-2.022Z" fill="#4d5ba5"></path></g></g></g></g></g></g></g><g id="Group_1673" data-name="Group 1673"><g id="Group_1670" data-name="Group 1670"><path id="Path_175" data-name="Path 175" d="M349.861,253.862a4.5,4.5,0,0,1,1.729-.23c2.967.167,6.187,2.969,8.463,7.345l-4.394,4.5-.186-.376c-.8-1.6-1.838-2.584-2.732-2.575a1.123,1.123,0,0,0-.513.128,2.242,2.242,0,0,0-.968,1.546l-5.517-4.71C346.435,256.524,347.891,254.528,349.861,253.862Z" fill="#fff"></path></g><g id="Group_1671" data-name="Group 1671"><path id="Path_176" data-name="Path 176" d="M355.017,273.187a1.114,1.114,0,0,0,.512-.133c1.239-.649,1.5-3.51.589-6.376v-.007l4.5-4.608a25.129,25.129,0,0,1,1.216,3.19c2.37,7.725.831,15.184-3.433,16.626a4.561,4.561,0,0,1-1.726.23,8.119,8.119,0,0,1-4.953-2.526l1.936-7.048A2.094,2.094,0,0,0,355.017,273.187Z" fill="#fdab00"></path></g><g id="Group_1672" data-name="Group 1672"><path id="Path_177" data-name="Path 177" d="M351.1,265.413a10.725,10.725,0,0,0,.535,3.62,9.946,9.946,0,0,0,1.121,2.424l-1.966,7.161a22.243,22.243,0,0,1-4.366-8.131,22.584,22.584,0,0,1-.9-9.84Z" fill="#346bb3"></path></g></g></g></g><g id="woman" transform="translate(192.847 311.854)"><g id="woman-right-arm" transform="translate(0 17.264)"><path id="Path_11184" data-name="Path 11184" d="M479.316-67.2l-1.108-1.773-.174-.182-.159-.63,2.141-.072,1.694-.044.2-.07-.675-.431-.756-.563-.248-.653.1-.1,1.363.581,1.923.594,1.328.962,4.695,4.383-1.731,2.667-3.832-4.367-2.26.084Z" transform="translate(-477.875 78.108)" fill="#fbc9bb"></path><g id="Group_5409" data-name="Group 5409" transform="translate(9.012)"><g id="Group_5408" data-name="Group 5408"><g id="Group_5407" data-name="Group 5407"><g id="Group_5406" data-name="Group 5406"><g id="Group_5405" data-name="Group 5405"><path id="Path_11185" data-name="Path 11185" d="M501.064-70.8c-3,7.075-6.023,13.452-8.344,17.78-.817,1.521-2.8,2.056-3.784,1.332l-.226-.123c-.846-1.143-.721-2.209.006-4.2,2.811-7.682,4.193-11.607,6.527-17.461a3.591,3.591,0,0,1,4.2-2.087C502.121-74.587,501.064-70.8,501.064-70.8Z" transform="translate(-480.711 75.703)" fill="url(#linear-gradient)"></path><path id="Path_11186" data-name="Path 11186" d="M483.5-65.148l2.225-3.031s4.962,5.018,8.213,7.987c1.229,1.122,1.885,2.217.79,3.366h0a2.637,2.637,0,0,1-3.8.207C488.16-59.569,483.5-65.148,483.5-65.148Z" transform="translate(-483.498 80.239)" fill="url(#linear-gradient-2)"></path></g></g></g></g></g></g><g id="body"><g id="Group_5400" data-name="Group 5400" transform="translate(28.02 3.066)"><g id="Group_5396" data-name="Group 5396" transform="translate(2.779 9.539)"><g id="Group_5395" data-name="Group 5395" transform="translate(0 0)"><rect id="Rectangle_971" data-name="Rectangle 971" width="10.17" height="4.254" transform="matrix(0.056, -0.998, 0.998, 0.056, 0, 10.155)" fill="#fbc9bb"></rect></g></g></g><g id="Group_5402" data-name="Group 5402" transform="translate(33.938 114.178)"><g id="Group_5401" data-name="Group 5401" transform="translate(1.028 0)"><path id="Path_11180" data-name="Path 11180" d="M504.147-15.047l.432,6.542L502.237-5.38l-2.546.71v.76l2.4.051,3.834-1.1,1.771-.678.78-1.411L507.959-8.1l-.209-1-.252-6.145Z" transform="translate(-499.691 15.238)" fill="#f9c0b2"></path></g><path id="Path_11181" data-name="Path 11181" d="M499.167-6.152l-.118-.2.323-1,3.246-.7,5.729-2.939.112.33.531,1.09L508.347-8.4l-.27.649-.29,1.6h-.554l-.213-1.393-4.339,1.393Z" transform="translate(-499.049 17.796)" fill="#4195c9"></path></g><g id="Group_5404" data-name="Group 5404" transform="translate(13.761 114.082)"><g id="Group_5403" data-name="Group 5403" transform="translate(1.028 0)"><path id="Path_11182" data-name="Path 11182" d="M492.533-15.107l-.543,6.638-2.342,3.124-2.546.71v.76l2.4.051,3.834-1.1L495.1-5.6l.78-1.411-.514-1.046-.209-1,.723-6.24Z" transform="translate(-487.102 15.297)" fill="#f9c0b2"></path></g><path id="Path_11183" data-name="Path 11183" d="M486.578-6.152l-.118-.2.323-1,3.246-.7,5.729-2.939.113.33.531,1.09L495.758-8.4l-.27.649-.29,1.6h-.554l-.213-1.393-4.339,1.393Z" transform="translate(-486.461 17.891)" fill="#4195c9"></path></g><g id="Group_5411" data-name="Group 5411" transform="translate(22.749 16.469)"><path id="Path_11187" data-name="Path 11187" d="M493.911-54.882c-.1-2.925-1.76-6.991-1.832-10.622-.063-3.135.093-8.551,2.353-9.641a18.362,18.362,0,0,1,4.3-.793l1.737-.231a16.145,16.145,0,0,0,.078,2.072c.2,1.023.686,3.472,1.3,3.47.707,0,2.116-2.512,2.507-3.547a13.5,13.5,0,0,0,.374-2.026s1.412.223,2.268.321a21.9,21.9,0,0,1,4.808.89c3.037,1.226,2.616,2.973,2.457,5.573,0,0-.763,5.538-1.083,7.783a75.688,75.688,0,0,0-.308,9.63c.027,2.651.109,4.32.109,4.32l.471,2.914-.654,1.417-.072,4.347H493.159l-.1-4.53-.979-.38,1.186-2.52S494-52.487,493.911-54.882Z" transform="translate(-492.069 76.199)" fill="url(#linear-gradient-3)"></path></g><g id="Group_5413" data-name="Group 5413" transform="translate(19.204 49.605)"><g id="Group_5412" data-name="Group 5412"><path id="Path_11188" data-name="Path 11188" d="M514.3-54.05l.055-1.476H494.191l.078,1.812-.967,7.261-1.88,28.472-1.564,28.721,5.054-.188,3.219-28.438,5.55-25.872.465-.482,2.96,27.907,2.07,27.067,5.082-.1-.371-27.187,1.471-32.874Z" transform="translate(-489.857 55.525)" fill="#1d1d1b"></path></g></g></g><g id="woman-left-arm"><g id="Group_5415" data-name="Group 5415" transform="translate(40.322 18.049)"><path id="Path_11189" data-name="Path 11189" d="M510.742-52.551c-1.443.665-2.677-.7-3.016-1.479,0,0-3.026-8.6-4.273-14.273-1.1-4.986.08-7.062,2.1-6.9,2.3.183,3.2,4.316,3.2,4.316,1.463,5.653,2.872,11.141,3.643,15.97A3.5,3.5,0,0,1,510.742-52.551Z" transform="translate(-503.033 75.213)" fill="url(#linear-gradient-4)"></path><g id="Group_5414" data-name="Group 5414" transform="translate(5.042 8.77)"><path id="Path_11190" data-name="Path 11190" d="M521.788-65.34l.124-3.518-.123-.23-.188.231-.716.417-.325-.012.451-.381.536-.218-.031-.636-.11-.055-.764.211L519.2-68.378l-.766,1.347-.445,1.146-9.059,4.643,1.995,3.1,8.881-6.029L521.566-65Z" transform="translate(-504.521 69.742)" fill="#fbc9bb"></path><path id="Path_11191" data-name="Path 11191" d="M506.492-58.506c-.463-1.088-.721-1.935,1.526-3.276,4.116-2.459,9.357-5.451,9.357-5.451l2.112,3.1s-6.544,4.9-8.87,6.155C509.72-57.5,507.471-56.212,506.492-58.506Z" transform="translate(-506.178 71.254)" fill="url(#linear-gradient-5)"></path></g></g><g id="Group_5418" data-name="Group 5418" transform="translate(50.132 22.834)"><g id="Group_5417" data-name="Group 5417" transform="translate(0 0)"><rect id="Rectangle_972" data-name="Rectangle 972" width="11.888" height="17.507" transform="translate(11.874 18.05) rotate(-177.287)" fill="#f2f2f2"></rect><g id="Group_5416" data-name="Group 5416" transform="translate(1.474 6.758)"><rect id="Rectangle_973" data-name="Rectangle 973" width="1.6" height="5.749" transform="matrix(0.999, 0.047, -0.047, 0.999, 0.272, 3.277)" fill="#4195c9"></rect><rect id="Rectangle_974" data-name="Rectangle 974" width="1.6" height="4.85" transform="matrix(0.999, 0.047, -0.047, 0.999, 2.661, 4.29)" fill="#4195c9"></rect><rect id="Rectangle_975" data-name="Rectangle 975" width="1.6" height="8.367" transform="translate(5.259 0.893) rotate(2.71)" fill="#4195c9"></rect><rect id="Rectangle_976" data-name="Rectangle 976" width="1.6" height="9.376" transform="matrix(0.999, 0.047, -0.047, 0.999, 7.739, 0)" fill="#4195c9"></rect></g></g><path id="Path_11192" data-name="Path 11192" d="M517.832-69.334l-1,.537-1.337.149v.456l.227.533.627,2.7,1.151-.167.37-.438.292-2.924-.1-.6Z" transform="translate(-505.331 73.972)" fill="#fbc9bb"></path></g></g><g id="woman-head"><g id="Group_5399" data-name="Group 5399" transform="translate(28.02 3.066)"><g id="Group_5398" data-name="Group 5398"><g id="Group_5397" data-name="Group 5397"><path id="Path_11178" data-name="Path 11178" d="M495.527-78.269c-.09,3.033,1.931,5.552,4.518,5.631s4.754-2.318,4.845-5.35c.008-.26.157-2.387.258-4.113a2.168,2.168,0,0,0-2.1-2.3l-5.454-.163a2.169,2.169,0,0,0-2.234,2.254C495.428-80.591,495.535-78.523,495.527-78.269Z" transform="translate(-495.357 84.561)" fill="#fbc9bb"></path></g></g><path id="Path_11179" data-name="Path 11179" d="M496.179-79.786a5.129,5.129,0,0,0,4.178.3S497.9-76.116,496.179-79.786Z" transform="translate(-494.861 87.439)" fill="#fde9e4"></path></g><path id="Path_11193" data-name="Path 11193" d="M495.116-68.982c3.286-.378,3.552-.7,5.531-.926l.079-.018c.213-.053.3.027.353-.048a1.579,1.579,0,0,0,.181-.906c.048-1.031-.05-.874-.272-1.015a7.512,7.512,0,0,1-2.339-2.5,8.926,8.926,0,0,1-.431-3.529,9.73,9.73,0,0,1,1.3-3.691,3.884,3.884,0,0,1,2.548-1.664s1.037-.178,1.382,1.967c.29,1.808.646.841,2.05,2.141s.155,2.34.208,3.432.519.728-1.664,3.587c-1.3,1.7-.361,2.55.561,3.345a3.918,3.918,0,0,0,2.082.136,17.359,17.359,0,0,1,5.158-.168.717.717,0,0,0,.872-.494c-.455-.43-1.466-.963-.675-2.149.832-1.249-.809-2.608-.341-4.271s-1.26-1.952-1.728-2.472.1-2.558-.418-2.922-1.018-.034-2.577-2.842a3.344,3.344,0,0,0-4.348-1.535c-3.327-2.443-6.14.271-7.53,3.129-.907,1.867,1.348,2.39-.109,3.847s-2.274,1.4-1.806,3.273-.008,1.2-1.359,2.085c-1.024.668-.825,1.667-.534,2.722C491.5-69.941,492.274-68.655,495.116-68.982Z" transform="translate(-469.932 86.473)" fill="#f9862d"></path></g></g><g id="man" transform="translate(150.942 308.19)"><g id="man-body"><path id="Path_11194" data-name="Path 11194" d="M477.277-44.794l2.144.389.244.1.671-.089-.757-2.1-.611-1.657-.011-.224.678.487.836.515.728-.012.06-.131-1.088-1.1-1.318-1.633-1.444-.914-1.895-4.051-2.632,1.169,2.265,4.759.791,2.22Z" transform="translate(-438.981 108.98)" fill="#f8af98"></path><g id="Group_5421" data-name="Group 5421" transform="translate(18.612 13.176)"><g id="Group_5420" data-name="Group 5420" transform="translate(0 0)"><rect id="Rectangle_977" data-name="Rectangle 977" width="4.107" height="6.571" transform="translate(0 0.228) rotate(-3.183)" fill="#f8af98"></rect></g></g><g id="Group_5422" data-name="Group 5422" transform="translate(25.083 20.398)"><path id="Path_11195" data-name="Path 11195" d="M469.459-75.653c.377-.162,3.23-1.356,3.654,1.548.785,5.377,1.659,14.258,2.316,19.306.285,2.183.043,3.242-1.5,3.8l-.255.077a2.761,2.761,0,0,1-3.529-2.173s-1.984-10.526-2.744-18.562A4.3,4.3,0,0,1,469.459-75.653Z" transform="translate(-467.38 76.033)" fill="#fece71"></path><path id="Path_11196" data-name="Path 11196" d="M474.366-62.3c1.665,4.489,4.836,13,4.836,13l-.245.845.249.869-3.14,1.164-.425-.8-.84-.62s-4.132-8.242-5.552-12.157a3.1,3.1,0,0,1,1.931-3.76A2.859,2.859,0,0,1,474.366-62.3Z" transform="translate(-466.346 83.391)" fill="#fece71"></path></g><g id="Group_5423" data-name="Group 5423" transform="translate(8.787 17.553)"><path id="Path_11197" data-name="Path 11197" d="M471.4-77.809l4.4,1.026c3.924,1.284,3.7,4.622,3.531,7.009l-.87,13.053.038,12.418.8,2.355L478.32-40.3l-.051,1.367-20.057.029.024-1.406-1.023-1.97.724-1.949s1.031-7.931,1.132-10.593c.1-2.561-.306-10.247-.306-10.247l-1.042-5.938c-.375-1.911-.162-4.8,2.321-5.725,1.319-.49,7.209-.9,7.209-.9s.25,1.518,2.455,1.467A1.744,1.744,0,0,0,471.4-77.809Z" transform="translate(-457.213 77.809)" fill="#fece71"></path></g><g id="Group_5427" data-name="Group 5427" transform="translate(0 55.375)"><g id="Group_5426" data-name="Group 5426" transform="translate(0 70.381)"><g id="Group_5424" data-name="Group 5424" transform="translate(23.092 0)"><path id="Path_11198" data-name="Path 11198" d="M469.161-7.171h-.119l-.027.6h-2.877l.079-.8.095,0,0-.008.008-2.924H469.3l.063.385L470.744-8.9l4.363,1.249s.345.149.338.338l-.013.345-.008.207s-.053.093-.409.2h-5l-.3-.4-.295-.186Z" transform="translate(-466.138 10.3)" fill="#1d1d1b"></path></g><g id="Group_5425" data-name="Group 5425" transform="translate(0 0)"><path id="Path_11199" data-name="Path 11199" d="M458.014-7.171h.12l.026.6h2.877l-.079-.8-.093,0,0-.008-.008-2.924h-2.986l-.064.385L456.43-8.9l-4.363,1.249s-.345.149-.337.338l.011.345.008.207s.053.093.409.2h5l.3-.4.295-.186Z" transform="translate(-451.731 10.3)" fill="#1d1d1b"></path></g></g><path id="Path_11200" data-name="Path 11200" d="M457.317-12.859l-2.122,29.414,4.7-.08,4.774-28.706,5.173-31.744.537.234,1.042,30.794.9,29.616h4.936l1.328-28.8,1.14-34.852v-7.23H459.18l-.035,3.462Z" transform="translate(-449.643 54.211)" fill="#4195c9"></path></g><path id="Path_11201" data-name="Path 11201" d="M454.885-55.5a78.067,78.067,0,0,1,4.358-19.615c1.112-2.9,3.231-1.233,3.531-.883a6.112,6.112,0,0,1,.95,4.775c-1.524,8.61-3.861,17.374-3.861,17.374-.994,1.957-2.648,1.614-3.658,1.29C454.706-53.037,454.885-55.5,454.885-55.5Z" transform="translate(-449.833 95.977)" fill="#fed88d"></path></g><g id="man-point" transform="translate(31.988 6.701) rotate(45)"><path id="Path_11206" data-name="Path 11206" d="M474.913-62.769l1.243-1.569,1.529.06.218-.582-2.03-.3-1.638-.243-.053-.035.222-.028.507.1.476.088.353-.289-.021-.045-1.546-.642-1.653.061-1.366.774-5.65.573.768,3.09,5.079-1.068,1.94.29Z" transform="translate(-443.428 102.328)" fill="#f8af98"></path><path id="Path_11207" data-name="Path 11207" d="M457.654-58.72c6.669.218,18.32-2.763,18.32-2.763l.341-.547.553-.155-.317-3.319-.587-.064-.667-.583s-10.352,1.162-17.307,1.7a3.273,3.273,0,0,0-3.1,3.252A2.534,2.534,0,0,0,457.654-58.72Z" transform="translate(-449.827 102.389)" fill="#fed88d"></path></g><g id="man-head" transform="translate(15.781)"><g id="Group_5429" data-name="Group 5429" transform="translate(1.262 2.195)"><g id="Group_5428" data-name="Group 5428"><path id="Path_11202" data-name="Path 11202" d="M471.267-79.1c.016,2.823-1.922,5.124-4.329,5.139s-4.372-2.263-4.39-5.086c0-.306-.148-3.395-.183-4.989a1.862,1.862,0,0,1,.681-1.479l.859-.712a1.877,1.877,0,0,1,.692-.362l2.574-.72a2.322,2.322,0,0,1,1.239,0l1.491.415a2.109,2.109,0,0,1,1.3,1,3.984,3.984,0,0,1,.481,2.058C471.631-82.177,471.265-79.382,471.267-79.1Z" transform="translate(-462.365 87.39)" fill="#f8af98"></path></g></g><g id="Group_5432" data-name="Group 5432" transform="translate(1.708 7.699)"><g id="Group_5431" data-name="Group 5431"><g id="Group_5430" data-name="Group 5430"><path id="Path_11203" data-name="Path 11203" d="M471.178-81.459a13.931,13.931,0,0,1-3.05.721,19,19,0,0,1-2.776-.386,1.238,1.238,0,0,1-.949-1.021l-.285-1.811-.473.061-.54,2.722-.462,1.774a6.935,6.935,0,0,0,.716,1.519,3.706,3.706,0,0,0,2.093,1.665,7.178,7.178,0,0,0,1.87.186,4.681,4.681,0,0,0,1.731-.649C471.159-77.91,471.205-80.1,471.178-81.459Z" transform="translate(-462.643 83.956)" fill="#1d1d1b"></path></g></g></g><path id="Path_11204" data-name="Path 11204" d="M462.734-78.3l.295.309s.053-.441.186-1.063c.082-.378-.346-3.012.555-2.973.37.016.5,1.132.5,1.132l.539.128a7.64,7.64,0,0,1-.067-2.015c.24-.978.564-1.394,1.035-.933.734.72,2.446.335,3.726-.071s2.037.043,2.978-1.43.5-2.539,0-3.031c-.253-.247-1.1-.718-3.234-.253s-2.032-.561-3.337-.17a6.756,6.756,0,0,0-4.308,5.278A12.856,12.856,0,0,0,462.734-78.3Z" transform="translate(-461.577 88.76)" fill="#1d1d1b"></path><path id="Path_11205" data-name="Path 11205" d="M468.118-80.765c.022.314-.54.607-1.252.656s-1.31-.165-1.33-.479.539-.607,1.252-.656S468.1-81.078,468.118-80.765Z" transform="translate(-459.191 93.286)" fill="#f8af98"></path></g></g><g id="woman-host" transform="translate(121.859 197.179)"><ellipse id="Ellipse_3123" data-name="Ellipse 3123" cx="24.149" cy="6.404" rx="24.149" ry="6.404" transform="translate(0 111.803)" opacity="0.25" fill="url(#linear-gradient-6)"></ellipse><path id="Path_10065" data-name="Path 10065" d="M1971.4,1511.342l-.622,55.688h5.486l-7.085,2.751-2.338-66.512Z" transform="translate(-1941.695 -1448.823)" fill="url(#linear-gradient-7)"></path><path id="Path_10066" data-name="Path 10066" d="M2013.134,1526.673l-.363,25.745-8.484,27.959,3.674,6.016-5.572-4.421,7.266-30.566-2.208-21.354Z" transform="translate(-1988.439 -1465.725)" fill="url(#linear-gradient-8)"></path><g id="Group_4629" data-name="Group 4629" transform="translate(12.731 10.26)"><g id="Group_4628" data-name="Group 4628"><g id="Group_4627" data-name="Group 4627"><path id="Path_10067" data-name="Path 10067" d="M1950.406,1526.673l1.2,4.809a4.424,4.424,0,0,1-.79,3.775l-1.618-.533-.674-2.646Z" transform="translate(-1924.806 -1475.985)" fill="url(#linear-gradient-9)"></path><path id="Path_10068" data-name="Path 10068" d="M1983.3,1344.218l2.842,7.773c-.521,2.792-.655,19.886.078,22.631l3.016,11.3s-1.313,19.582-3.628,19.608l-.173,0a17.712,17.712,0,0,1-16.622-24.048,24.592,24.592,0,0,1,3.471-6.463c4.105-5.041,1.786-11.775-.476-16.047a9.389,9.389,0,0,1,5.549-13.5q.343-.093.693-.166Z" transform="translate(-1967.603 -1344.218)" fill="url(#linear-gradient-10)"></path><path id="Path_10069" data-name="Path 10069" d="M1954.56,1373.566l-2.45,17.879,6.779,27.216-9.661-25.279-.031-21.3,1.485-.97A2.522,2.522,0,0,1,1954.56,1373.566Z" transform="translate(-1932.148 -1363.34)" fill="url(#linear-gradient-11)"></path><path id="Path_10070" data-name="Path 10070" d="M1970.288,1356.055l-5.13,5.289-.013-8.383-1.356-8.743,4.16,2.644a6.115,6.115,0,0,1,2.779,5.991Z" transform="translate(-1948.097 -1344.218)" fill="url(#linear-gradient-12)"></path></g></g></g><path id="Path_10072" data-name="Path 10072" d="M1973.984,1732.778H1968.5l-1.656,1.13.057,1.622Z" transform="translate(-1939.414 -1614.572)" fill="#1d1d1b" style="mix-blend-mode: multiply;isolation: isolate"></path><path id="Path_10073" data-name="Path 10073" d="M2021.355,1720.115l1.551-.131,3.674,6.016-5.573-4.421Z" transform="translate(-2007.057 -1605.331)" fill="#1d1d1b"></path></g><g id="woman-host-head" transform="translate(121.859 197.179)"><ellipse id="Ellipse_3124" data-name="Ellipse 3124" cx="3.472" cy="3.472" rx="3.472" ry="3.472" transform="translate(25.6 9.436) rotate(-110.688)" fill="url(#linear-gradient-13)"></ellipse><path id="Path_10071" data-name="Path 10071" d="M1989.4,1309.882a6.637,6.637,0,0,0-2.171,5.479,6.291,6.291,0,0,0,1.164,3.035c2.322,3.123,3.725,8.474.243,9.37s-5.418-2.3-7.453.1-7.256-1.126-3.955-6.964,3.754-14.866,9.707-13.471C1990.21,1308.2,1990.133,1309.167,1989.4,1309.882Z" transform="translate(-1958.754 -1307.289)" fill="#1d1d1b"></path></g></svg>